<svg xmlns="http://www.w3.org/2000/svg"
    viewBox="0 0 1080 1080" fill="none"
>
    <metadata>
        Created by potrace 1.10, written by Peter Selinger 2001-2011
    </metadata>
    <g transform="translate(0.000000,322.000000) scale(0.100000,-0.100000)"
        fill="#000000" stroke="none">
        <path
            d="M2394 3209 c-3 -6 1 -18 10 -27 21 -21 89 -6 94 21 3 17 2 17 -18 -3
-26 -26 -76 -25 -74 3 2 20 -2 22 -12 6z" />
        <path
            d="M2520 3181 c0 -6 45 -33 100 -60 81 -40 101 -46 111 -35 6 7 9 19 6
26 -4 8 -6 7 -6 -4 -1 -10 -6 -18 -13 -18 -16 0 -137 58 -170 82 -16 11 -28
15 -28 9z" />
        <path
            d="M2335 3141 c-16 -15 -46 -46 -65 -67 -19 -21 -3 -10 35 26 38 36 71
66 74 68 2 1 0 2 -5 2 -5 0 -22 -13 -39 -29z" />
        <path
            d="M525 3143 c-290 -16 -454 -27 -470 -33 -53 -21 38 -21 352 0 186 12
379 24 428 27 50 3 92 7 94 9 3 3 -334 1 -404 -3z" />
        <path
            d="M21 2116 c0 -549 -3 -1001 -6 -1004 -15 -16 -2 -20 18 -6 l22 17 -5
976 c-4 743 -8 981 -17 996 -10 16 -12 -189 -12 -979z" />
        <path
            d="M2769 3061 c-19 -16 -22 -23 -13 -37 6 -10 17 -20 25 -22 8 -2 5 2
-5 10 -39 30 11 68 69 54 44 -11 31 -52 -19 -60 -8 -1 -19 -6 -23 -10 -4 -5 6
-6 22 -2 17 4 38 17 48 29 18 21 18 22 -3 39 -29 23 -72 23 -101 -1z" />
        <path
            d="M2112 3023 c1 -5 -4 -20 -12 -35 -16 -33 -1 -58 35 -58 20 0 25 -8
34 -50 6 -28 11 -58 11 -66 0 -20 30 -30 41 -13 14 22 10 35 -4 15 -12 -16
-14 -14 -26 26 -7 23 -16 55 -21 70 -6 21 -4 31 11 44 22 20 24 45 7 62 -13
13 -79 17 -76 5z m76 -25 c5 -24 -35 -60 -61 -56 -29 4 -32 29 -6 56 24 26 62
26 67 0z" />
        <path
            d="M2670 3000 c0 -6 10 -10 23 -10 19 -1 17 -4 -13 -20 -19 -11 -30 -19
-25 -19 6 0 26 8 45 19 36 19 36 19 -15 35 -8 2 -15 0 -15 -5z" />
        <path
            d="M2886 2980 c8 -33 71 -130 85 -130 5 0 7 -4 4 -10 -3 -5 2 -10 11
-10 14 0 10 9 -18 38 -20 20 -48 60 -62 87 -15 28 -24 39 -20 25z" />
        <path
            d="M2745 2962 c-11 -14 -32 -46 -46 -70 -16 -26 -28 -39 -31 -31 -2 7
-10 -1 -16 -19 -6 -18 -7 -30 -2 -27 6 4 10 13 10 21 0 8 4 13 9 10 5 -3 21
15 36 41 15 27 37 58 48 70 11 13 19 25 16 27 -2 2 -13 -8 -24 -22z" />
        <path
            d="M2020 2956 c-12 -12 -13 -26 -2 -26 4 0 17 8 30 18 22 17 22 18 2 18
-11 0 -25 -5 -30 -10z" />
        <path
            d="M583 2910 c-20 -27 -43 -50 -50 -50 -7 0 -13 -4 -13 -10 0 -20 31 4
70 56 22 30 38 54 36 54 -3 0 -22 -22 -43 -50z" />
        <path
            d="M2060 2878 c-19 -22 -42 -51 -50 -63 -8 -12 -20 -20 -26 -18 -9 3
-34 -36 -34 -53 0 -13 32 16 71 65 24 30 54 67 67 83 36 44 11 31 -28 -14z" />
        <path
            d="M456 2814 c-38 -38 -27 -95 18 -93 19 2 19 2 -2 6 -13 3 -26 11 -29
19 -8 22 14 63 39 74 17 6 18 9 6 9 -9 1 -24 -6 -32 -15z" />
        <path
            d="M2595 2775 c-46 -45 -23 -93 39 -81 18 4 41 15 50 25 22 24 17 65 -7
67 -12 1 -13 1 -2 -3 27 -8 18 -51 -16 -68 -69 -36 -107 8 -48 57 18 15 28 28
21 28 -7 0 -24 -11 -37 -25z" />
        <path
            d="M2205 2745 c-49 -48 -19 -126 42 -110 36 8 73 43 73 67 0 26 -18 58
-32 58 -6 0 -4 -8 5 -18 34 -37 12 -83 -46 -97 -34 -9 -57 9 -57 44 0 36 14
54 52 68 27 9 29 12 10 12 -13 1 -34 -10 -47 -24z" />
        <path
            d="M2700 2699 c-34 -36 -37 -51 -14 -69 11 -10 23 -11 42 -4 29 10 36
35 12 41 -13 4 -13 3 0 -6 13 -10 13 -12 0 -21 -19 -13 -52 -9 -57 6 -2 7 11
28 30 48 19 20 30 36 26 36 -5 0 -22 -14 -39 -31z" />
        <path
            d="M511 2699 c-1 -14 9 -41 22 -60 13 -19 26 -42 30 -52 7 -19 27 -15
27 5 0 6 -3 8 -7 5 -9 -10 -55 61 -64 97 -7 29 -7 30 -8 5z" />
        <path
            d="M2362 2710 c-31 -13 -38 -37 -17 -60 17 -19 17 -20 -6 -29 -23 -9
-23 -10 -2 -10 30 -1 38 16 19 38 -25 27 -19 38 27 54 23 9 33 15 22 16 -11 0
-30 -4 -43 -9z" />
        <path
            d="M397 2673 c-14 -21 -31 -50 -38 -65 -6 -15 -16 -25 -20 -22 -5 3 -9
-2 -9 -10 0 -27 15 -18 35 22 10 20 30 52 43 70 13 18 22 35 19 38 -2 2 -16
-13 -30 -33z" />
        <path d="M860 2661 c-7 -22 -11 -44 -8 -47 8 -7 31 63 26 77 -2 7 -10 -7 -18
-30z" />
        <path
            d="M1980 2666 c0 -14 -5 -28 -11 -31 -17 -11 -23 3 -9 20 19 23 6 18
-24 -10 -48 -45 -121 -46 -129 -2 l-4 22 -2 -22 c-1 -29 32 -47 73 -39 89 17
92 17 89 -17 -2 -25 0 -22 8 9 8 34 13 41 28 37 10 -3 22 1 26 7 5 9 1 10 -15
5 -21 -7 -22 -5 -16 19 4 15 2 26 -4 26 -5 0 -10 -11 -10 -24z" />
        <path
            d="M1148 2600 c-7 -11 -19 -20 -26 -20 -49 0 -105 -76 -116 -156 -7 -47
8 -83 45 -113 15 -12 30 -39 38 -70 9 -35 26 -66 57 -99 51 -55 63 -35 13 22
l-30 35 25 7 c35 8 24 22 -12 16 -16 -2 -33 1 -36 7 -5 7 5 11 26 11 l33 1
-27 15 c-30 16 -58 61 -58 94 0 11 -7 23 -15 26 -18 7 -20 30 -2 37 8 3 12 22
11 58 -2 36 3 58 12 67 12 11 14 10 15 -5 1 -10 3 -25 4 -33 1 -8 3 -21 4 -27
0 -7 5 -13 10 -13 5 0 7 9 4 21 -3 11 0 32 8 45 11 22 11 27 -1 35 -11 8 -9 9
8 4 15 -4 31 0 48 14 32 25 66 28 58 6 -4 -11 0 -15 16 -15 34 0 78 -31 91
-63 11 -26 10 -32 -7 -45 -15 -11 -15 -13 -2 -9 27 9 41 -18 34 -64 -5 -29 -2
-48 11 -70 25 -42 38 -31 41 36 3 51 1 57 -12 46 -8 -7 -17 -27 -19 -44 -3
-18 -3 -5 -1 29 3 65 -13 135 -42 180 -24 35 -71 54 -139 54 -44 0 -57 -4 -67
-20z" />
        <path
            d="M825 2575 c-52 -51 -22 -131 38 -100 14 7 29 10 33 7 4 -4 4 -2 0 5
-3 6 -2 14 4 18 17 10 11 54 -10 75 -26 26 -36 25 -65 -5z m73 -34 c5 -31 -25
-61 -60 -61 -25 0 -28 3 -28 35 0 22 8 43 21 56 18 18 23 19 42 6 12 -8 23
-24 25 -36z" />
        <path
            d="M585 2549 c-22 -20 -35 -40 -35 -56 0 -30 17 -63 32 -63 6 0 4 8 -5
18 -24 26 -21 65 7 91 32 30 67 24 84 -13 18 -37 5 -67 -39 -89 -22 -11 -27
-17 -16 -17 10 0 32 14 49 30 24 25 29 36 23 58 -8 31 -21 49 -46 63 -14 7
-26 2 -54 -22z" />
        <path
            d="M355 2549 c-4 -6 -13 -8 -21 -5 -8 3 -14 0 -14 -6 0 -7 -5 -7 -15 2
-15 12 -59 4 -50 -10 3 -4 -2 -13 -10 -20 -8 -7 -15 -16 -15 -21 0 -5 14 5 30
23 l30 33 22 -25 c14 -16 19 -19 15 -7 -4 11 -1 17 7 17 7 0 19 7 26 15 7 8
10 15 7 15 -3 0 -9 -5 -12 -11z" />
        <path
            d="M316 2461 c-25 -48 -69 -55 -84 -13 -6 15 -11 21 -11 14 -2 -24 19
-52 38 -52 24 0 67 35 74 60 7 28 0 25 -17 -9z" />
        <path
            d="M2535 2480 c-4 -6 -1 -18 6 -27 11 -13 10 -18 -6 -30 -19 -14 -19
-15 5 -8 14 4 28 13 32 19 5 8 8 7 8 -2 0 -9 5 -10 19 -3 10 6 21 8 23 5 3 -2
10 2 17 9 9 12 3 14 -36 15 -68 0 -70 1 -49 17 17 13 17 15 4 15 -9 0 -20 -5
-23 -10z" />
        <path
            d="M1954 2468 c-5 -7 -3 -8 6 -3 9 6 11 0 5 -24 -5 -25 -3 -31 11 -31
13 0 11 -5 -10 -21 -14 -11 -26 -25 -26 -32 0 -6 14 2 30 18 27 26 29 31 16
41 -14 9 -14 13 -1 30 8 10 15 22 15 27 0 12 -38 8 -46 -5z" />
        <path
            d="M2291 2460 c-13 -11 -18 -20 -12 -20 6 0 11 -8 12 -17 1 -10 6 -3 12
15 7 22 15 31 24 28 8 -3 11 -1 8 4 -9 14 -17 12 -44 -10z" />
        <path
            d="M874 2455 c-9 -21 3 -45 21 -45 20 0 31 28 17 42 -7 7 -10 6 -9 -3 1
-8 -2 -15 -8 -16 -5 -2 -9 6 -8 17 3 23 -5 27 -13 5z" />
        <path
            d="M2667 2452 c-24 -26 -10 -34 26 -16 24 13 31 14 38 2 7 -10 9 -9 9 5
0 20 -13 22 -42 6 -18 -10 -20 -9 -15 5 8 21 4 20 -16 -2z" />
        <path
            d="M2132 2443 c-1 -12 -7 -23 -13 -25 -6 -2 -10 -11 -8 -21 7 -32 31 -2
26 34 -2 19 -5 24 -5 12z" />
        <path
            d="M2350 2445 c-7 -8 -16 -12 -21 -9 -5 3 -6 -2 -3 -10 8 -21 12 -20 36
7 l20 22 -5 -22 c-3 -13 -1 -23 5 -23 13 0 6 42 -8 47 -6 2 -17 -3 -24 -12z" />
        <path
            d="M512 2427 c-41 -43 -24 -59 33 -32 22 11 24 13 6 9 -21 -6 -23 -4
-17 20 8 32 5 32 -22 3z" />
        <path
            d="M1350 2421 c0 -11 -5 -23 -10 -26 -6 -4 -8 -11 -4 -16 8 -14 34 9 34
32 0 10 -4 21 -10 24 -5 3 -10 -3 -10 -14z" />
        <path
            d="M2020 2425 c-6 -8 -10 -20 -7 -27 4 -8 6 -7 6 4 1 9 5 19 10 22 5 4
7 -4 3 -16 -5 -21 -4 -22 12 -9 13 11 19 12 25 3 4 -7 12 -8 21 -2 13 8 12 12
-5 24 -26 20 -49 20 -65 1z" />
        <path
            d="M1090 2400 c-9 -17 -8 -20 7 -20 10 0 24 4 32 9 11 7 10 11 -7 20
-18 9 -23 8 -32 -9z" />
        <path
            d="M2769 2416 c-2 -2 -92 -9 -199 -15 -202 -12 -488 -42 -457 -49 10 -2
73 3 140 12 67 9 212 21 322 27 193 11 214 13 203 24 -2 3 -7 3 -9 1z" />
        <path
            d="M1176 2401 c-13 -5 -16 -10 -8 -15 6 -4 21 -2 32 4 16 8 18 8 14 -4
-4 -10 4 -16 23 -19 81 -16 103 -17 103 -8 0 17 -23 25 -68 22 -27 -2 -42 1
-38 7 3 6 -1 13 -10 16 -19 7 -23 7 -48 -3z" />
        <path
            d="M210 2380 c0 -5 8 -6 17 -3 14 6 13 0 -6 -30 -12 -20 -19 -37 -14
-37 8 0 43 62 43 75 0 3 -9 5 -20 5 -11 0 -20 -4 -20 -10z" />
        <path
            d="M2320 2331 c0 -5 -8 -12 -17 -14 -13 -3 -10 -5 7 -6 19 -1 21 -4 12
-13 -7 -7 -12 -17 -12 -22 0 -6 5 -3 11 6 5 10 16 15 24 12 8 -4 15 -1 15 6 0
6 5 8 13 3 18 -11 36 -12 43 -2 3 5 13 9 22 9 12 0 13 -3 4 -12 -22 -22 -12
-32 11 -10 28 27 34 27 40 5 4 -14 5 -12 6 5 1 13 -5 22 -13 22 -8 0 -17 6
-19 13 -4 8 -6 7 -6 -4 -1 -11 -10 -15 -36 -13 -20 2 -40 6 -45 9 -5 3 -11 1
-15 -4 -3 -6 -12 -8 -20 -5 -8 4 -12 10 -9 15 3 5 0 9 -5 9 -6 0 -11 -4 -11
-9z" />
        <path
            d="M2545 2312 c-8 -22 2 -27 30 -14 14 6 25 8 25 3 0 -4 7 -8 15 -8 12
0 12 3 2 16 -9 12 -9 13 1 7 6 -4 12 -3 12 2 0 16 -78 11 -85 -6z" />
        <path
            d="M857 2298 c-14 -8 -16 -13 -6 -24 9 -11 8 -18 -2 -30 -8 -10 0 -8 24
6 43 26 47 33 12 24 -25 -6 -36 10 -12 19 6 2 10 7 7 10 -3 3 -13 1 -23 -5z" />
        <path d="M1250 2280 l-35 -30 44 18 c25 10 47 24 49 30 7 22 -23 12 -58 -18z" />
        <path
            d="M2140 2300 c0 -3 5 -12 10 -20 8 -12 10 -12 11 5 0 11 3 14 6 7 5
-13 23 -7 23 8 0 6 -11 9 -25 8 -14 -1 -25 -5 -25 -8z" />
        <path
            d="M377 2292 c-3 -4 -4 -27 -3 -52 1 -25 -2 -51 -7 -57 -12 -17 5 -17
139 3 60 9 210 20 334 24 l225 8 -235 -4 c-129 -2 -262 -8 -295 -13 -33 -6
-62 -8 -64 -5 -3 3 1 14 8 25 7 12 10 24 7 27 -3 3 -6 -1 -7 -9 0 -8 -4 -6 -9
6 -7 16 -9 13 -9 -16 -1 -37 -16 -48 -64 -49 -15 0 -16 3 -6 21 8 15 8 19 0
15 -7 -5 -11 4 -11 23 0 39 17 49 23 14 4 -27 4 -27 6 3 1 29 -22 55 -32 36z" />
        <path
            d="M636 2282 c-12 -15 -14 -25 -7 -43 10 -24 10 -24 10 -1 1 12 1 25 0
28 0 4 5 10 12 15 8 4 11 10 8 14 -3 3 -13 -3 -23 -13z" />
        <path
            d="M755 2271 c-11 -5 -25 -6 -32 -4 -15 6 -53 -15 -53 -29 0 -6 11 -3
25 6 25 17 51 13 40 -5 -4 -5 -1 -9 5 -9 7 0 10 7 6 15 -3 8 -1 15 4 15 6 0
10 -7 10 -15 0 -8 8 -15 18 -15 12 0 14 2 4 8 -7 5 -10 16 -6 25 7 19 7 19
-21 8z" />
        <path
            d="M1310 2265 c-7 -8 -21 -15 -31 -15 -10 0 -21 -4 -24 -10 -3 -5 1 -10
10 -10 22 0 75 28 75 40 0 15 -16 12 -30 -5z" />
        <path
            d="M1376 2255 c-22 -33 -20 -42 3 -21 19 17 20 17 24 -6 3 -18 5 -16 6
9 1 41 -13 49 -33 18z" />
        <path
            d="M2551 2243 c0 -7 -14 -13 -30 -13 -16 0 -31 -6 -35 -15 -3 -8 -1 -15
4 -15 6 0 10 6 10 13 0 8 3 8 9 -2 8 -13 12 -13 27 0 14 11 18 11 22 1 3 -10
7 -10 18 -1 10 8 14 8 14 0 0 -6 4 -11 8 -11 5 0 9 7 9 16 0 11 -7 14 -23 11
-15 -3 -25 1 -27 12 -3 9 -5 10 -6 4z" />
        <path
            d="M2061 2205 c0 -37 1 -39 14 -21 8 11 11 22 6 25 -4 3 -11 13 -14 21
-3 8 -6 -3 -6 -25z" />
        <path d="M2223 2217 c-26 -26 -29 -37 -10 -37 14 0 40 29 45 48 3 18 -10 13
-35 -11z" />
        <path
            d="M2313 2224 c-18 -19 -17 -48 1 -41 8 3 17 1 20 -6 3 -7 4 -3 3 8 -2
11 -9 19 -17 17 -11 -3 -11 0 0 13 16 19 10 28 -7 9z" />
        <path
            d="M2371 2225 c-1 -17 -3 -18 -11 -5 -8 12 -10 11 -10 -8 0 -24 28 -42
39 -25 3 6 14 9 23 7 10 -1 21 2 24 8 4 6 10 5 15 -3 7 -11 9 -11 9 3 0 13 -7
15 -39 11 -32 -4 -40 -2 -44 13 -4 18 -5 17 -6 -1z" />
        <path
            d="M1435 2210 c-19 -7 -19 -7 3 -19 12 -7 22 -21 22 -34 0 -16 3 -18 9
-9 8 14 3 60 -8 66 -3 2 -15 0 -26 -4z" />
        <path
            d="M927 2173 c-6 -35 -4 -38 16 -19 8 8 17 13 20 10 3 -3 11 4 17 16 10
19 10 20 -10 8 -17 -11 -22 -11 -29 0 -6 10 -10 6 -14 -15z" />
        <path
            d="M860 2181 c0 -8 -7 -23 -17 -33 -19 -21 -6 -24 20 -3 15 10 17 18 8
32 -7 12 -10 14 -11 4z" />
        <path
            d="M1394 2155 c-10 -22 -20 -44 -23 -50 -2 -5 3 -4 11 2 8 7 18 10 21 6
4 -3 7 -1 7 5 0 6 7 9 15 6 8 -4 15 -12 15 -20 0 -8 -6 -11 -15 -8 -16 6 -35
-9 -53 -43 -19 -35 -14 -40 13 -10 14 15 32 27 40 27 8 0 19 9 25 19 10 20 4
51 -10 51 -5 0 -13 12 -18 28 l-9 27 -19 -40z" />
        <path
            d="M1255 2164 c17 -13 18 -16 5 -25 -13 -9 -13 -10 0 -6 8 2 16 13 18
25 3 17 -2 22 -20 22 -23 -1 -23 -1 -3 -16z" />
        <path d="M780 2155 c0 -14 47 -12 62 3 7 7 -3 10 -26 10 -22 0 -36 -5 -36 -13z" />
        <path
            d="M628 2152 c-18 -2 -28 -9 -28 -20 0 -15 2 -15 10 -2 9 13 11 13 20 0
8 -13 11 -13 26 1 19 19 10 26 -28 21z" />
        <path
            d="M2082 2127 c2 -16 10 -22 31 -22 15 -1 27 4 27 10 0 5 4 4 9 -4 6 -9
11 -10 15 -2 4 6 12 9 17 6 5 -4 9 1 9 9 0 17 -12 21 -23 9 -11 -10 -69 -14
-63 -4 3 5 -1 12 -10 15 -12 4 -15 0 -12 -17z" />
        <path
            d="M2523 2127 c-14 -17 -14 -19 -1 -9 10 8 18 9 22 3 4 -5 15 -8 26 -6
13 2 20 -2 20 -11 0 -18 10 -17 34 1 16 12 22 12 29 2 6 -9 7 -8 4 3 -2 8 -11
14 -21 12 -10 -2 -16 4 -16 15 0 14 -2 15 -9 4 -7 -11 -15 -11 -39 -3 -26 9
-33 7 -49 -11z" />
        <path
            d="M2331 2130 c-14 -3 -26 -11 -28 -17 -6 -16 49 -6 59 10 5 8 8 8 8 1
0 -10 17 -11 53 -5 4 0 7 5 7 10 0 10 -58 11 -99 1z" />
        <path
            d="M1280 2110 c-8 -5 -26 -10 -40 -10 -20 0 -22 -2 -10 -10 22 -14 35
-12 61 10 25 20 16 27 -11 10z" />
        <path
            d="M1190 2086 c0 -5 114 -178 142 -215 l18 -24 0 28 c0 16 -3 25 -6 22
-7 -7 -51 53 -99 135 -25 44 -55 73 -55 54z" />
        <path
            d="M743 2068 c-18 -5 -33 -13 -33 -18 0 -14 17 -12 24 3 5 9 7 9 12 0 4
-10 9 -9 21 3 20 20 15 23 -24 12z" />
        <path
            d="M641 2061 c-1 -7 -7 -11 -15 -8 -10 4 -12 0 -9 -14 3 -10 9 -19 14
-19 13 0 22 26 16 42 -4 10 -6 10 -6 -1z" />
        <path
            d="M1754 2062 c3 -6 2 -13 -3 -16 -10 -7 -9 -85 5 -256 l8 -105 7 75 c4
41 10 89 14 105 6 29 6 29 -10 10 -16 -19 -17 -15 -11 82 4 72 3 104 -6 109
-6 4 -8 3 -4 -4z" />
        <path
            d="M2081 2037 c1 -30 1 -30 8 -7 7 23 8 23 13 5 3 -13 14 -21 29 -22 16
-2 20 1 10 6 -10 7 -11 10 0 16 9 6 6 11 -12 18 -44 18 -49 17 -48 -16z" />
        <path
            d="M2191 2049 c-1 -16 4 -26 14 -26 8 0 15 5 15 11 0 6 5 4 11 -4 8 -11
12 -12 16 -2 7 18 23 15 23 -5 0 -22 6 -14 14 19 6 26 5 27 -19 18 -14 -5 -32
-7 -40 -4 -9 4 -15 0 -16 -7 0 -8 -4 -5 -9 6 -8 18 -9 18 -9 -6z" />
        <path d="M2341 2049 c-17 -13 -21 -23 -14 -30 12 -12 43 14 43 37 0 18 0 18
-29 -7z" />
        <path
            d="M2570 2041 c0 -22 5 -30 18 -30 9 0 29 -2 45 -5 15 -2 27 -1 27 4 0
14 33 21 42 8 5 -9 8 -6 8 10 0 19 -3 21 -19 12 -29 -15 -41 -12 -51 13 -8 20
-9 20 -10 2 0 -17 -2 -17 -10 -5 -8 12 -10 11 -10 -7 0 -16 -4 -21 -15 -17
-10 4 -13 13 -10 25 4 11 2 19 -4 19 -6 0 -11 -13 -11 -29z" />
        <path
            d="M455 2050 c-3 -5 -3 -15 0 -20 4 -6 1 -18 -7 -27 -12 -15 -11 -15 10
-4 12 7 20 17 17 24 -4 7 0 4 8 -6 12 -14 16 -15 25 -4 7 8 29 13 57 12 25 -1
45 2 45 8 0 5 -16 7 -35 5 -27 -3 -35 0 -35 12 0 13 -2 13 -9 1 -12 -19 -74
-23 -67 -4 6 15 0 17 -9 3z" />
        <path
            d="M2436 2053 c-9 -9 -7 -51 3 -57 4 -3 6 7 5 22 -2 15 -1 21 2 14 6
-13 24 -7 24 8 0 10 -26 20 -34 13z" />
        <path d="M1390 1979 c-17 -35 -24 -55 -15 -44 24 29 57 96 51 102 -2 3 -19
-24 -36 -58z" />
        <path
            d="M1470 2013 c1 -20 19 -31 63 -35 40 -5 47 -3 47 12 0 12 -11 20 -31
24 -43 8 -79 8 -79 -1z" />
        <path
            d="M1821 1973 c4 -21 15 -56 24 -78 l15 -40 -4 40 c-2 22 -7 49 -11 60
-6 14 -5 17 2 10 37 -36 107 -361 73 -340 -5 3 -5 -7 1 -25 6 -16 15 -33 20
-36 24 -15 -5 217 -40 319 -11 32 -18 65 -15 75 4 13 3 14 -4 4 -7 -10 -12 -6
-22 17 -7 18 -20 31 -30 31 -15 0 -17 -5 -9 -37z" />
        <path
            d="M661 1983 c-11 -13 -12 -16 0 -23 7 -5 19 -5 27 -1 17 10 62 2 62
-11 0 -5 7 -2 16 6 17 17 10 41 -9 29 -19 -12 -68 -10 -75 3 -5 9 -10 8 -21
-3z" />
        <path
            d="M1697 1983 c-4 -3 -7 -15 -7 -25 0 -10 -9 -26 -20 -35 -24 -21 -26
-39 -4 -47 21 -8 33 2 15 13 -10 7 -10 9 2 14 8 3 18 22 21 42 7 38 5 50 -7
38z" />
        <path
            d="M2272 1965 c-14 -31 -15 -62 -3 -69 4 -3 6 6 3 19 -2 14 3 36 12 50
9 14 13 25 8 25 -5 0 -14 -11 -20 -25z" />
        <path
            d="M2170 1959 c0 -16 -4 -19 -20 -14 -15 5 -20 2 -19 -12 0 -12 2 -14 6
-4 5 11 7 11 14 0 11 -18 59 -20 52 -2 -4 9 0 11 11 7 9 -3 13 -11 9 -17 -3
-6 -1 -7 6 -3 8 6 9 12 2 20 -6 7 -8 15 -6 18 3 3 -6 3 -20 0 -20 -3 -24 -1
-19 12 3 9 1 16 -5 16 -6 0 -11 -9 -11 -21z" />
        <path
            d="M545 1959 c-3 -4 -14 -5 -25 -2 -11 3 -20 0 -20 -6 0 -14 45 -14 71
-1 13 7 19 7 19 0 0 -15 17 -12 23 5 5 11 -2 14 -29 13 -19 -1 -37 -5 -39 -9z" />
        <path
            d="M1130 1945 c-23 -25 -23 -25 -2 -25 11 0 26 8 32 18 8 12 13 13 16 4
7 -15 24 -6 24 14 0 23 -44 16 -70 -11z" />
        <path
            d="M1417 1927 c-31 -21 -55 -43 -52 -48 3 -5 28 7 55 25 27 19 55 36 62
39 9 3 10 8 3 14 -6 6 -30 -4 -68 -30z" />
        <path
            d="M2359 1953 c-1 -10 -1 -22 1 -28 1 -5 -4 -4 -11 3 -20 18 -49 15 -49
-6 0 -10 7 -19 15 -19 8 0 15 4 15 8 0 4 9 5 20 2 17 -5 20 0 20 26 0 33 -9
44 -11 14z" />
        <path
            d="M934 1935 c-3 -7 6 -50 20 -95 14 -44 26 -86 26 -93 0 -7 6 -23 13
-37 8 -14 14 -47 15 -73 2 -45 1 -47 -18 -37 -11 6 -20 16 -20 22 0 6 -3 9 -6
5 -3 -3 -3 -15 1 -26 5 -16 15 -21 44 -21 21 0 40 2 43 5 3 3 -8 41 -24 83
-54 141 -78 249 -58 262 8 5 5 9 -10 13 -13 3 -23 0 -26 -8z" />
        <path d="M2496 1934 c-4 -9 -4 -19 -2 -22 10 -9 36 8 36 23 0 20 -26 19 -34
-1z" />
        <path
            d="M1004 1874 c29 -52 31 -58 14 -48 -7 5 -8 3 -3 -5 5 -9 10 -10 18 -2
11 11 -30 101 -46 101 -5 0 3 -21 17 -46z" />
        <path
            d="M1206 1905 c4 -8 10 -12 15 -9 5 3 29 -6 53 -19 25 -14 42 -19 40
-13 -5 12 -86 56 -104 56 -5 0 -7 -7 -4 -15z" />
        <path
            d="M621 1897 c-14 -14 -54 -16 -64 -3 -5 7 -7 3 -5 -9 4 -25 47 -29 66
-6 12 14 13 14 8 -4 -6 -19 -5 -19 8 -2 10 14 15 15 19 5 3 -7 6 -4 6 8 1 22
-21 28 -38 11z" />
        <path
            d="M516 1879 c-6 -19 -9 -21 -14 -9 -6 14 -9 14 -23 -1 -15 -15 -13 -16
17 -17 37 -2 49 10 36 34 -8 14 -10 13 -16 -7z" />
        <path
            d="M881 1742 c-6 -59 -14 -129 -18 -157 l-6 -50 22 19 c21 19 29 46 13
46 -7 0 -8 27 -3 48 1 2 8 -4 17 -13 27 -26 29 -7 3 22 -13 14 -18 23 -10 18
10 -5 12 -3 8 11 -3 11 -8 34 -12 52 -9 45 16 43 39 -4 20 -42 32 -41 15 2 -7
16 -11 33 -10 37 0 4 -9 23 -22 42 l-23 34 -13 -107z" />
        <path
            d="M1326 1831 c-4 -6 -12 -9 -17 -6 -18 12 -9 -14 10 -27 11 -8 21 -29
24 -48 3 -28 4 -25 5 15 2 52 -10 86 -22 66z" />
        <path
            d="M1795 1754 c7 -42 -12 -104 -26 -82 -6 9 -9 4 -9 -16 0 -20 -4 -27
-14 -23 -11 4 -13 -3 -9 -32 5 -40 -25 -105 -49 -107 -7 0 -27 -2 -45 -2 -24
-2 -31 -6 -27 -17 5 -11 11 -12 24 -5 10 6 39 10 63 10 31 0 47 5 51 15 3 8 1
15 -4 15 -6 0 -10 7 -10 15 0 14 56 35 98 35 13 0 46 -10 73 -21 56 -24 74
-21 32 6 -15 10 -40 29 -55 43 -27 25 -41 19 -15 -7 10 -10 7 -10 -16 -2 -16
6 -40 11 -55 11 -22 0 -24 -2 -12 -11 11 -8 9 -9 -10 -3 -35 9 -35 8 -6 57 22
38 56 127 56 150 0 4 -10 7 -21 7 -19 0 -20 -4 -14 -36z" />
        <path
            d="M1666 1768 c3 -5 0 -15 -6 -23 -7 -8 -9 -15 -6 -15 10 0 86 40 86 45
0 2 -18 3 -40 3 -22 0 -37 -5 -34 -10z" />
        <path
            d="M1835 1743 c-4 -23 -3 -39 4 -41 5 -2 7 -10 4 -19 -4 -10 -2 -14 4
-10 11 7 11 92 1 103 -3 3 -9 -12 -13 -33z" />
        <path
            d="M1685 1730 c-3 -5 -2 -10 3 -10 6 0 13 -12 16 -26 10 -37 19 -22 11
15 -7 31 -19 39 -30 21z" />
        <path
            d="M1636 1674 c1 -19 4 -36 6 -37 1 -1 16 -13 33 -27 l29 -25 -28 38
c-31 42 -30 80 2 56 14 -11 13 -9 -2 9 -28 32 -42 27 -40 -14z" />
        <path
            d="M1485 1633 c-58 -6 -75 -13 -75 -31 0 -13 2 -14 9 -4 7 11 15 10 45
-6 30 -16 41 -18 61 -8 14 6 25 17 25 25 0 8 11 2 28 -15 49 -50 62 -59 62
-40 0 9 -7 16 -15 16 -8 0 -15 4 -15 9 0 4 -11 19 -23 33 -23 25 -36 27 -102
21z" />
        <path
            d="M1165 1584 c-93 -12 -191 -23 -217 -23 -32 -1 -48 -5 -48 -13 1 -16
49 -52 57 -44 4 3 0 6 -8 7 -8 0 -6 4 6 9 19 8 19 9 -3 9 -50 2 -8 19 60 25
197 18 364 39 373 47 13 13 -22 10 -220 -17z" />
        <path
            d="M1379 1586 c-2 -2 -47 -12 -99 -21 -52 -9 -155 -30 -227 -48 -114
-27 -133 -35 -133 -51 0 -20 0 -20 14 0 14 18 15 18 46 -11 17 -16 33 -40 36
-52 4 -13 14 -28 23 -34 13 -9 12 -10 -6 -6 -15 4 -23 0 -23 -9 0 -8 -5 -14
-11 -14 -5 0 -7 -5 -4 -11 5 -7 12 -6 23 3 10 8 36 23 60 33 42 18 59 41 22
31 -11 -3 -30 -9 -41 -12 -13 -4 -19 -2 -15 4 3 5 -10 27 -30 47 -27 29 -32
40 -22 45 11 6 170 46 218 55 115 20 128 23 150 30 14 5 28 -7 59 -49 23 -30
41 -57 41 -60 0 -3 -14 -3 -32 1 -27 5 -30 4 -19 -8 8 -8 29 -15 48 -17 l35
-2 -32 57 c-32 59 -72 107 -81 99z" />
        <path
            d="M1891 1519 c9 -17 8 -24 -2 -31 -11 -8 -10 -9 3 -5 11 4 23 -3 33
-20 l17 -26 14 33 c18 41 18 40 -4 40 -10 0 -27 7 -38 15 -27 21 -36 18 -23
-6z" />
        <path
            d="M837 1493 c-11 -10 -8 -27 6 -47 11 -15 17 -17 35 -7 12 7 22 21 22
33 0 17 -3 19 -12 10 -9 -9 -15 -8 -28 3 -9 8 -20 12 -23 8z" />
        <path
            d="M1820 1481 c0 -5 7 -14 15 -21 21 -18 19 -35 -2 -19 -16 13 -17 12
-4 -4 8 -9 16 -15 19 -12 3 3 13 -2 23 -11 11 -10 25 -13 38 -9 31 9 26 19
-20 39 -22 10 -43 24 -46 32 -6 15 -23 19 -23 5z" />
        <path d="M1064 1449 c-9 -16 18 -30 33 -17 7 6 13 14 13 19 0 13 -38 11 -46
-2z" />
        <path
            d="M1714 1450 c-10 -10 -31 -14 -82 -19 -7 0 -11 -5 -8 -10 3 -5 25 -6
49 -4 31 4 46 1 56 -11 11 -13 9 -16 -16 -22 -15 -3 -35 -8 -44 -10 -9 -3 -29
0 -44 6 -14 5 -32 7 -38 3 -17 -10 28 -21 96 -22 53 -1 74 -12 45 -24 -7 -3
-1 -6 15 -6 22 -1 27 -6 27 -26 0 -14 5 -25 10 -25 29 0 -7 103 -48 137 l-27
22 35 -2 c19 -1 37 3 40 8 7 14 -53 18 -66 5z" />
        <path
            d="M1560 1440 c-8 -5 -25 -7 -37 -3 -14 3 -23 1 -23 -6 0 -6 8 -11 18
-12 9 -1 34 -2 55 -3 36 -3 36 -2 21 16 -10 10 -18 18 -18 18 -1 0 -8 -5 -16
-10z" />
        <path
            d="M1340 1430 c0 -5 7 -7 15 -4 8 3 40 -10 72 -30 61 -37 73 -42 73 -27
0 5 -15 14 -32 22 -18 7 -44 21 -57 31 -25 19 -71 25 -71 8z" />
        <path d="M860 1409 c-12 -22 -8 -35 8 -25 13 8 22 46 11 46 -4 0 -13 -9 -19
-21z" />
        <path
            d="M1185 1420 c-4 -6 -15 -8 -26 -5 -14 5 -17 3 -13 -9 3 -9 10 -16 16
-16 16 0 48 20 48 30 0 13 -17 13 -25 0z" />
        <path
            d="M980 1410 c0 -6 -8 -13 -17 -17 -56 -20 -67 -63 -28 -109 30 -34 33
-64 7 -64 -22 0 -62 40 -62 61 0 8 5 20 11 26 8 8 6 17 -10 34 l-21 23 0 -48
c0 -26 5 -56 11 -67 14 -27 97 -79 123 -78 20 0 20 1 -1 11 -18 9 -21 16 -16
42 3 17 10 33 15 34 4 2 -6 14 -24 26 -48 31 -48 60 -1 101 21 19 32 34 26 35
-7 0 -13 -5 -13 -10z" />
        <path
            d="M1310 1402 c0 -11 34 -42 45 -42 4 0 0 9 -10 20 -27 30 -3 24 40 -10
21 -17 40 -28 43 -25 6 5 -43 46 -67 57 -23 10 -51 9 -51 0z" />
        <path
            d="M1490 1390 c14 -11 30 -20 37 -20 6 0 13 -6 16 -12 3 -10 7 -10 17
-1 10 9 8 13 -13 18 -14 4 -31 13 -38 21 -6 8 -19 14 -28 14 -12 0 -10 -5 9
-20z" />
        <path
            d="M1799 1377 c13 -15 28 -24 34 -20 6 4 8 -4 5 -21 -4 -21 -3 -24 8
-15 23 19 16 34 -28 59 l-43 23 24 -26z" />
        <path
            d="M1856 1379 c12 -13 23 -29 25 -35 2 -6 15 2 28 19 24 28 24 29 3 18
-18 -9 -27 -8 -49 6 l-28 17 21 -25z" />
        <path
            d="M273 1353 c9 -2 17 -9 17 -15 0 -7 4 -7 13 0 6 5 21 12 32 15 11 2
-2 5 -30 5 -27 0 -42 -2 -32 -5z" />
        <path
            d="M1115 1333 c-4 -13 -12 -23 -17 -23 -6 0 -8 -7 -4 -15 3 -9 0 -15 -8
-15 -8 0 -16 -11 -18 -24 -4 -18 -1 -23 9 -19 8 3 12 11 9 18 -2 7 3 12 12 11
9 0 21 9 27 22 5 12 17 22 27 22 9 0 19 4 22 9 3 4 -5 6 -18 4 -17 -4 -26 0
-29 14 -4 16 -6 16 -12 -4z" />
        <path
            d="M310 1319 c0 -6 -9 -8 -21 -4 -16 5 -20 3 -17 -6 3 -9 18 -13 37 -12
39 1 51 11 31 23 -20 13 -30 12 -30 -1z" />
        <path d="M1529 1317 c-40 -11 -34 -14 43 -19 41 -3 55 -1 51 8 -6 16 -52 22
-94 11z" />
        <path
            d="M1206 1306 c-45 -14 -54 -27 -31 -46 12 -10 15 -10 15 3 0 23 24 38
77 47 40 6 42 8 13 8 -19 0 -53 -6 -74 -12z" />
        <path
            d="M331 1283 c3 -20 -2 -26 -12 -13 -8 12 -9 11 -7 -5 3 -14 10 -19 25
-17 14 2 23 -3 26 -15 2 -10 4 -1 4 20 1 30 -3 37 -18 37 -10 0 -18 -3 -18 -7z" />
        <path
            d="M240 1255 c0 -14 5 -25 10 -25 6 0 10 5 10 11 0 7 8 18 18 25 15 12
14 13 -10 14 -23 0 -28 -4 -28 -25z" />
        <path
            d="M1021 1247 c-21 -24 -20 -64 2 -50 6 4 8 -2 5 -15 -7 -27 8 -29 21
-3 12 22 5 31 -23 31 -18 0 -17 3 9 30 16 17 24 30 19 30 -6 0 -20 -11 -33
-23z" />
        <path
            d="M1835 1230 c3 -14 8 -40 12 -57 l6 -33 80 0 c95 0 96 9 2 18 l-67 7
-20 45 c-10 25 -16 34 -13 20z" />
        <path
            d="M2414 1217 c3 -10 6 -21 6 -23 0 -2 8 -4 18 -4 14 0 15 -2 2 -10 -8
-5 -69 -9 -135 -9 -129 0 -133 15 -5 18 41 1 80 7 85 13 7 7 -6 9 -45 4 -30
-3 -79 -6 -108 -6 -52 0 -53 -1 -50 -27 2 -16 9 -28 16 -27 6 1 70 2 141 3
l128 1 -7 33 c-4 19 -12 31 -20 29 -7 -2 -17 3 -23 10 -6 9 -7 8 -3 -5z" />
        <path d="M2731 1145 c7 -6 259 -8 266 -1 4 3 -56 6 -132 6 -76 0 -136 -2 -134
-5z" />
        <path
            d="M1742 1100 c-62 -29 -91 -38 -113 -33 -17 3 -35 0 -44 -7 -11 -9 -69
-14 -184 -18 -156 -4 -172 -3 -227 18 -32 12 -74 26 -92 30 -28 7 -31 6 -21
-6 8 -10 8 -14 0 -14 -6 0 -11 -8 -11 -17 0 -13 3 -14 12 -5 18 18 45 15 122
-12 39 -14 72 -23 75 -21 4 1 39 0 79 -4 39 -4 72 -3 72 1 0 4 10 7 23 6 19
-1 121 10 137 15 3 1 6 -2 8 -8 1 -5 -24 -13 -55 -16 l-58 -6 67 -1 c62 -2 67
0 70 21 2 13 9 21 18 18 21 -5 33 -4 52 4 11 4 18 1 21 -12 4 -14 5 -14 6 5 0
12 6 22 12 22 7 0 17 6 23 13 6 8 32 22 59 31 26 10 47 22 47 27 0 14 -8 11
-98 -31z" />
        <path
            d="M225 1120 c4 -6 -19 -10 -62 -11 -37 -1 -79 -4 -93 -8 -29 -9 420 -3
660 9 115 6 65 6 -162 3 -241 -4 -328 -3 -328 6 0 6 -5 11 -11 11 -5 0 -7 -4
-4 -10z" />
        <path
            d="M2025 1102 c-114 -1 -194 -7 -200 -13 -7 -7 168 -8 565 -4 316 4 583
7 593 7 9 -1 17 4 17 9 0 9 -423 9 -975 1z" />
        <path
            d="M818 1085 c-2 -1 -178 -5 -392 -9 -214 -3 -390 -7 -391 -9 -7 -7 -12
-107 -7 -106 4 0 16 4 27 9 18 8 18 9 2 9 -15 1 -18 8 -15 39 l3 37 150 2 c83
0 287 4 455 7 168 3 320 6 338 6 17 0 32 5 32 10 0 7 -36 10 -100 9 -54 -1
-100 -3 -102 -4z" />
        <path d="M2088 993 c72 -2 192 -2 265 0 72 1 13 3 -133 3 -146 0 -205 -2 -132
-3z" />
        <path d="M723 983 c37 -2 96 -2 130 0 34 2 4 3 -68 3 -71 0 -99 -1 -62 -3z" />
        <path d="M207 973 c24 -2 62 -2 85 0 24 2 5 4 -42 4 -47 0 -66 -2 -43 -4z" />
        <path d="M1797 964 c-8 -14 3 -54 14 -54 11 0 11 17 0 44 -4 11 -10 15 -14 10z" />
        <path
            d="M1021 908 c-13 -61 -7 -122 39 -403 28 -176 50 -331 64 -447 l6 -48
-568 -3 c-312 -1 110 -2 938 -2 1070 0 1275 1 710 5 l-795 5 1 75 c0 41 6 102
12 135 7 33 12 104 12 157 0 138 11 157 50 91 13 -21 25 -33 27 -26 3 7 30 -9
69 -42 35 -30 68 -55 72 -54 4 0 -11 14 -32 32 -56 46 -146 136 -146 147 0 5
8 10 18 12 10 3 39 -17 74 -50 31 -30 102 -82 157 -116 56 -33 113 -71 128
-83 16 -13 56 -40 89 -62 73 -46 77 -51 79 -110 3 -54 14 -101 24 -101 14 0
-1 114 -21 165 -21 53 -56 159 -78 237 l-14 47 -125 41 c-70 22 -171 63 -225
90 -55 27 -102 48 -104 45 -7 -6 -5 -8 53 -40 72 -41 123 -65 135 -65 5 0 10
-6 10 -14 0 -9 8 -12 25 -8 15 2 25 0 25 -7 0 -6 6 -11 13 -11 35 1 179 -45
187 -59 4 -9 11 -37 15 -61 4 -25 10 -47 14 -50 4 -3 11 -13 14 -24 6 -14 4
-17 -10 -12 -16 5 -16 5 -2 -6 9 -7 24 -28 34 -47 l17 -34 -28 22 c-16 12 -87
61 -159 108 -71 48 -170 116 -219 152 -49 36 -95 65 -102 63 -8 -2 -12 3 -9
10 3 7 -5 24 -18 38 -31 33 -152 204 -184 257 -32 55 -40 55 -12 1 32 -62 94
-153 145 -213 24 -29 44 -55 44 -58 0 -3 -10 -8 -22 -10 -20 -4 -19 -4 5 -6
36 -1 35 -24 -2 -50 l-29 -21 1 -110 c2 -98 0 -111 -18 -124 -19 -15 -19 -15
-1 -16 19 0 19 -8 0 -90 -3 -14 -5 -53 -4 -87 l1 -63 -131 0 c-129 0 -131 0
-125 21 4 11 2 49 -4 82 -15 88 -50 305 -56 352 -3 22 -15 94 -25 160 -24 145
-32 268 -20 300 5 14 6 27 0 30 -5 3 -13 -18 -19 -47z" />
        <path
            d="M1634 908 c3 -13 6 -26 6 -29 0 -4 12 -9 28 -12 l27 -5 -27 22 c-16
12 -28 25 -28 29 0 15 46 6 57 -12 6 -10 22 -21 34 -24 19 -5 18 -2 -10 23
-21 20 -43 30 -63 30 -27 0 -30 -3 -24 -22z" />
        <path
            d="M1738 924 c-4 -3 8 -22 27 -40 41 -39 42 -44 15 -44 -11 0 -37 -7
-58 -16 -31 -13 -34 -17 -20 -25 20 -11 84 12 103 37 16 22 7 64 -11 57 -8 -3
-22 5 -32 17 -9 12 -20 18 -24 14z" />
        <path
            d="M1525 830 c3 -5 10 -10 14 -10 5 0 40 -18 77 -40 70 -41 109 -49 146
-29 23 12 40 2 18 -11 -8 -5 -11 -12 -7 -16 4 -4 13 -2 19 4 7 7 23 12 36 12
21 0 22 2 12 15 -9 11 -32 15 -79 15 -42 1 -73 6 -85 15 -11 8 -25 15 -32 15
-6 0 -29 8 -50 17 -49 21 -77 26 -69 13z" />
        <path
            d="M1831 536 c-11 -13 -8 -14 22 -9 27 4 39 1 56 -18 16 -17 21 -19 21
-7 0 35 -76 62 -99 34z" />
        <path
            d="M171 393 c-9 -10 -25 -13 -50 -10 -20 3 -56 2 -81 -3 -40 -7 -35 -8
41 -9 47 0 90 -6 96 -12 15 -15 25 4 16 29 -7 18 -10 18 -22 5z" />
        <path
            d="M1560 357 c0 -16 50 -85 91 -127 48 -49 149 -120 171 -120 7 0 -3 10
-22 21 -72 44 -140 102 -181 157 -54 72 -59 78 -59 69z" />
        <path
            d="M1665 284 c52 -49 232 -144 270 -143 17 0 17 2 -5 11 -125 55 -195
92 -250 132 l-65 47 50 -47z" />
        <path d="M1794 272 c8 -14 157 -95 162 -89 5 5 -52 40 -125 76 -23 13 -40 18
-37 13z" />
        <path
            d="M1671 100 c0 -8 7 -31 14 -50 10 -26 14 -29 14 -14 1 12 -6 35 -14
50 -8 16 -15 22 -14 14z" />
    </g>
</svg>