<svg version="1.0" xmlns="http://www.w3.org/2000/svg"
    width="300.000000pt" height="322.000000pt" viewBox="0 0 300.000000 322.000000"
    preserveAspectRatio="xMidYMid meet">
    <metadata>
        Created by potrace 1.10, written by Peter Selinger 2001-2011
    </metadata>
    <g transform="translate(0.000000,322.000000) scale(0.100000,-0.100000)"
        fill="#0d0d0d" stroke="none">
        <path
            d="M0 2164 c0 -765 3 -1055 11 -1052 8 3 11 283 11 1003 -1 778 2 996
11 980 9 -15 13 -245 15 -920 1 -495 3 -935 5 -977 2 -75 1 -77 -27 -94 -22
-13 -25 -18 -15 -25 10 -6 11 -9 2 -9 -10 0 -13 -62 -13 -274 0 -253 1 -275
18 -279 16 -4 16 -5 0 -6 -15 -1 -18 -11 -18 -66 l0 -65 91 0 91 0 -5 60 c-2
33 -1 60 3 60 11 0 18 -133 8 -144 -5 -6 -8 -5 -8 2 0 8 -27 12 -90 12 l-90 0
0 -180 0 -180 565 0 564 0 -5 53 c-7 67 -25 187 -68 462 -40 263 -46 323 -38
392 5 39 10 50 20 45 9 -7 10 -16 1 -41 -13 -37 -6 -191 10 -251 6 -19 13 -57
16 -85 5 -56 16 -126 41 -265 9 -52 17 -106 19 -120 1 -14 8 -53 14 -88 7 -35
9 -72 6 -82 -6 -20 6 -20 924 -20 l931 0 0 545 -1 545 -312 -6 c-172 -3 -436
-6 -587 -7 -151 -1 -284 -6 -295 -11 -20 -8 -20 -8 0 6 24 18 329 28 858 28
264 0 338 3 335 12 -4 10 -65 12 -259 11 -182 0 -230 1 -169 7 47 4 163 8 258
9 l172 1 0 780 c0 494 -4 780 -10 780 -5 0 -14 10 -21 21 -9 18 -7 27 10 50
25 34 27 49 4 49 -9 0 -13 3 -10 6 3 4 -4 15 -18 26 -25 20 -82 125 -72 134 3
3 15 -16 27 -44 12 -27 37 -64 56 -83 l34 -33 0 191 0 192 -250 1 c-220 0
-250 -1 -250 -15 0 -17 -38 -35 -75 -35 -23 0 -40 24 -29 41 3 5 -6 9 -21 9
-16 0 -28 -7 -31 -17 -3 -10 -8 -24 -10 -32 -3 -8 -7 -12 -10 -9 -2 3 0 17 5
31 l10 26 -1170 0 -1169 1 0 -1056z m1648 1039 c-16 -2 -40 -2 -55 0 -16 2 -3
4 27 4 30 0 43 -2 28 -4z m-115 -10 c-13 -2 -35 -2 -50 0 -16 2 -5 4 22 4 28
0 40 -2 28 -4z m-125 -10 c-16 -2 -40 -2 -55 0 -16 2 -3 4 27 4 30 0 43 -2 28
-4z m1237 -63 c67 -30 85 -31 85 -4 0 8 4 14 10 14 5 0 7 -8 3 -17 -15 -43
-22 -43 -124 8 -54 27 -99 54 -99 60 0 6 13 1 29 -10 16 -12 59 -34 96 -51z
m-1460 45 c-77 -7 -165 -13 -195 -13 -35 1 -11 5 65 13 66 7 154 12 195 12 59
0 45 -2 -65 -12z m1194 3 c-3 -2 -36 -32 -74 -68 -38 -36 -54 -47 -35 -26 49
55 104 105 109 100 2 -2 2 -5 0 -6z m-1450 -23 c-2 -2 -199 -15 -437 -30 -301
-19 -437 -24 -444 -17 -7 7 0 12 23 16 77 12 395 28 457 23 37 -3 59 -2 50 1
-9 4 67 8 169 9 102 1 184 0 182 -2z m-220 -72 c-20 -5 -44 -47 -35 -62 10
-15 51 -14 64 2 5 6 12 21 15 32 4 19 5 19 6 -1 2 -47 -89 -76 -97 -31 -5 25
25 67 46 66 14 -1 15 -2 1 -6z m1527 -15 c-24 -34 -20 -40 27 -34 31 4 35 3
17 -3 -38 -13 -70 -13 -70 2 0 13 28 57 36 57 3 0 -2 -10 -10 -22z m634 4 c28
-23 18 -48 -24 -62 -65 -21 -122 25 -77 62 29 23 72 23 101 0z m-2250 -21 c0
-6 -4 -13 -10 -16 -5 -3 -10 1 -10 9 0 9 5 16 10 16 6 0 10 -4 10 -9z m1568
-23 c17 -17 15 -42 -7 -62 -15 -13 -17 -23 -11 -44 5 -15 14 -46 21 -70 l13
-44 18 24 19 23 -12 -27 c-13 -29 -37 -37 -44 -15 -2 6 -9 38 -15 70 -10 48
-15 57 -33 57 -38 0 -51 15 -42 46 5 16 7 35 6 42 -3 16 71 16 87 0z m518 5
c-10 -11 -56 -11 -50 -1 3 4 17 8 31 8 15 0 23 -3 19 -7z m-1901 -60 l38 -48
-41 40 c-36 33 -51 55 -39 55 1 0 20 -21 42 -47z m1243 22 c-5 -22 -2 -25 16
-19 15 4 13 0 -9 -15 -40 -28 -51 -26 -31 4 9 13 16 30 15 37 0 10 -2 10 -6 1
-2 -7 -9 -13 -15 -13 -6 0 -6 6 2 15 19 23 33 18 28 -10z m670 9 c14 -4 10 -9
-18 -24 -19 -11 -39 -19 -45 -19 -5 0 6 8 25 19 30 16 32 19 13 20 -13 0 -23
4 -23 10 0 9 5 8 48 -6z m-2098 -4 c-20 -13 -33 -13 -25 0 3 6 14 10 23 10 15
0 15 -2 2 -10z m-21 -74 c-29 -36 -56 -66 -61 -66 -4 0 -8 -5 -8 -11 0 -5 5
-7 12 -3 7 4 8 3 4 -5 -4 -6 -12 -9 -17 -6 -13 9 -11 35 4 36 6 0 34 29 61 64
28 36 52 63 54 60 2 -2 -20 -33 -49 -69z m2154 41 c-21 -23 -73 -111 -73 -123
0 -3 7 -1 15 6 8 7 15 9 15 4 0 -5 -28 -27 -63 -49 -49 -32 -62 -45 -62 -65 0
-31 31 -38 74 -15 35 17 41 48 14 64 -17 10 -17 10 -1 11 10 0 22 -9 27 -19
22 -40 -54 -93 -109 -76 -30 10 -27 58 6 84 15 12 33 21 41 21 8 0 12 4 8 9
-3 5 0 21 7 36 8 18 14 22 20 13 5 -8 8 -9 8 -2 0 17 81 136 88 129 3 -3 -4
-15 -15 -28z m-273 13 c-20 -13 -33 -13 -25 0 3 6 14 10 23 10 15 0 15 -2 2
-10z m-1430 -40 c0 -5 -7 -10 -16 -10 -8 0 -12 5 -9 10 3 6 10 10 16 10 5 0 9
-4 9 -10z m-47 -20 c3 -11 1 -18 -4 -14 -5 3 -9 12 -9 20 0 20 7 17 13 -6z
m1086 -19 c-13 -16 -44 -53 -68 -82 -24 -30 -49 -58 -57 -62 -8 -4 -14 -12
-14 -17 0 -5 16 0 35 11 19 12 35 19 35 16 0 -10 -71 -49 -77 -43 -10 9 29 87
41 83 6 -2 18 6 26 18 25 38 85 103 94 104 5 1 -2 -12 -15 -28z m-1224 -1 c3
-6 -1 -7 -9 -4 -18 7 -21 14 -7 14 6 0 13 -4 16 -10z m95 -16 c15 -9 17 -12 5
-8 -11 4 -32 7 -47 7 -15 0 -25 4 -22 8 8 13 36 10 64 -7z m-97 -35 c-8 -16
-17 -28 -20 -25 -6 5 23 56 31 56 3 0 -2 -14 -11 -31z m142 11 c-10 -11 -21
-18 -23 -15 -3 3 3 12 14 20 27 20 30 18 9 -5z m-523 -30 c-44 -18 -55 -90
-14 -90 31 0 55 35 48 67 -5 21 -4 24 4 13 12 -18 13 -57 1 -64 -14 -9 4 -80
31 -119 13 -20 28 -34 31 -30 4 3 7 1 7 -5 0 -20 -20 -24 -27 -5 -4 10 -15 30
-26 44 -10 15 -22 42 -26 60 -6 29 -11 34 -32 31 -14 -2 -31 4 -38 12 -24 29
10 97 47 95 12 0 11 -3 -6 -9z m383 -30 c3 -5 1 -10 -4 -10 -6 0 -11 5 -11 10
0 6 2 10 4 10 3 0 8 -4 11 -10z m125 -10 c0 -5 21 -32 47 -60 26 -28 53 -61
61 -73 17 -26 -79 75 -109 116 -11 15 -16 27 -10 27 6 0 11 -4 11 -10z m-73
-6 c-3 -3 -12 -4 -19 -1 -8 3 -5 6 6 6 11 1 17 -2 13 -5z m1391 -31 c27 -37 7
-84 -45 -104 -52 -19 -83 2 -83 56 0 65 90 98 128 48z m-1898 -9 c0 -8 4 -13
9 -10 13 9 7 -27 -10 -54 -74 -119 -88 -153 -49 -117 12 10 12 9 1 -5 -7 -10
-20 -18 -27 -18 -11 0 -11 -5 -2 -25 13 -29 -8 -69 -47 -87 -51 -23 -83 29
-49 80 10 15 18 30 16 34 -3 13 39 20 53 8 10 -9 15 -5 20 20 4 16 10 28 14
26 4 -3 17 14 29 37 12 23 30 53 39 67 17 23 17 24 0 17 -15 -6 -17 -3 -12 14
5 15 4 19 -4 15 -12 -8 -15 6 -5 17 10 10 24 -2 24 -19z m474 -34 c-8 -33 -13
-65 -11 -71 1 -7 -4 -14 -10 -16 -17 -6 -16 17 2 60 8 20 15 48 15 62 0 14 4
25 9 25 5 0 3 -27 -5 -60z m1040 9 c14 -11 26 -27 26 -35 0 -8 5 -12 10 -9 16
10 12 -7 -7 -28 -17 -19 -17 -20 5 -8 14 7 22 21 22 36 0 14 5 25 10 25 6 0 8
-11 4 -26 -6 -24 -5 -26 16 -19 16 5 20 4 15 -5 -4 -6 -16 -10 -26 -7 -15 4
-20 -2 -25 -32 -8 -53 -12 -60 -13 -25 -1 24 -6 33 -23 38 -13 3 -27 1 -32 -4
-13 -13 -62 -13 -87 0 -30 17 -23 54 16 89 42 37 54 38 89 10z m802 0 c-14
-11 -24 -25 -20 -30 3 -5 9 -7 13 -4 5 2 17 -2 27 -10 19 -15 19 -15 0 -30
-33 -25 -76 -13 -76 21 0 16 55 74 70 74 7 0 1 -9 -14 -21z m-310 4 c-3 -4
-17 -8 -29 -10 -12 -2 -28 -10 -36 -18 -13 -13 -12 -17 3 -34 21 -23 14 -41
-17 -40 -21 0 -21 1 2 10 23 9 23 10 6 29 -21 23 -14 47 17 60 27 11 64 13 54
3z m-1289 -95 c-3 -8 -6 -5 -6 6 -1 11 2 17 5 13 3 -3 4 -12 1 -19z m190 -17
c50 -26 85 -124 76 -216 -5 -52 -3 -62 11 -62 11 0 13 4 6 12 -13 15 -8 51 8
67 9 9 12 -1 12 -45 0 -40 -4 -59 -14 -63 -9 -4 -13 -18 -11 -42 1 -20 0 -26
-2 -12 l-5 24 -18 -24 c-10 -14 -22 -21 -27 -16 -4 5 -2 11 5 13 7 3 19 18 27
34 14 26 14 31 -1 54 -13 20 -14 33 -6 65 5 22 6 42 2 45 -4 2 -10 22 -14 43
-6 43 -48 98 -65 88 -6 -4 -11 -3 -11 2 0 6 -17 6 -42 1 -63 -12 -68 -10 -23
12 l40 19 -40 -3 c-24 -1 -45 -9 -53 -20 -9 -11 -21 -15 -36 -11 -31 7 -66
-29 -67 -70 0 -17 -3 -25 -6 -18 -2 6 -9 10 -13 7 -5 -3 -7 -12 -3 -20 3 -8 0
-15 -7 -15 -6 0 -10 -6 -7 -12 5 -18 32 -16 32 1 0 8 7 16 15 18 13 4 13 3 0
-6 -13 -10 -13 -11 0 -11 11 -1 8 -7 -9 -21 -13 -11 -30 -18 -38 -15 -18 7
-17 -12 3 -31 14 -14 18 -13 41 15 21 26 29 30 44 21 27 -14 24 -24 -7 -26
-30 -1 -45 -18 -37 -42 18 -57 28 -71 61 -85 l37 -15 -38 0 c-25 -1 -36 -5
-31 -12 3 -6 20 -9 36 -7 16 3 31 1 34 -3 2 -5 11 -6 19 -2 8 3 15 1 15 -4 0
-5 -20 -8 -45 -7 -25 1 -45 0 -45 -3 0 -3 16 -23 35 -44 29 -32 34 -44 29 -67
-8 -32 -12 -38 -20 -29 -3 3 -1 14 4 23 8 15 2 27 -29 62 -23 26 -44 65 -53
97 -14 46 -45 93 -46 69 -1 -5 -10 9 -20 30 -43 85 24 236 104 236 9 0 16 6
16 14 0 32 122 37 177 7z m-427 -21 c23 -23 24 -77 1 -118 -13 -24 -6 -47 10
-36 6 3 8 13 4 23 -5 12 -3 13 6 4 15 -15 5 -43 -16 -43 -21 0 -31 29 -17 51
18 28 15 31 -12 14 -29 -19 -61 -8 -71 24 -10 33 34 99 68 101 4 0 16 -9 27
-20z m-222 -32 c5 -7 13 -25 17 -40 6 -22 1 -33 -23 -58 -35 -35 -64 -38 -92
-10 -36 36 -19 99 35 128 20 11 43 4 63 -20z m472 -2 c0 -8 -4 -18 -10 -21
-15 -9 -6 -85 10 -95 12 -8 10 -10 -7 -10 -19 0 -23 6 -23 30 0 17 -5 30 -11
30 -8 0 -8 4 0 14 6 7 8 21 5 31 -4 10 -1 21 7 26 20 13 29 11 29 -5z m117
-12 c-3 -3 -12 -4 -19 -1 -8 3 -5 6 6 6 11 1 17 -2 13 -5z m13 -29 c0 -12 -19
-12 -23 0 -4 9 -1 12 9 8 7 -3 14 -7 14 -8z m80 -17 c0 -12 -6 -9 -26 13 -19
22 -19 22 4 8 12 -8 22 -17 22 -21z m-167 14 c-18 -11 9 -42 40 -44 14 -1 24
-6 21 -10 -6 -10 -42 -1 -71 17 -20 13 -22 19 -12 31 6 8 17 14 23 14 8 0 8
-2 -1 -8z m1374 -23 c-24 -14 -12 -29 19 -23 14 3 32 0 40 -7 10 -8 14 -8 14
0 0 6 5 11 11 11 8 0 7 -5 -1 -15 -7 -9 -15 -13 -18 -10 -3 3 -12 -1 -20 -8
-12 -9 -16 -9 -19 1 -3 6 -9 12 -14 12 -6 0 -7 -4 -4 -10 3 -5 2 -10 -4 -10
-5 0 -18 -3 -28 -6 -17 -5 -17 -5 1 10 15 12 17 18 7 30 -15 18 -6 36 17 36
15 -1 15 -2 -1 -11z m-557 -6 c0 -5 -7 -17 -15 -27 -13 -17 -13 -21 1 -30 13
-10 11 -15 -16 -41 -16 -16 -30 -24 -30 -18 0 7 12 21 26 32 21 16 23 21 10
21 -14 0 -16 6 -11 31 6 24 4 30 -5 24 -9 -5 -11 -4 -6 3 8 13 46 17 46 5z
m335 -3 c3 -5 0 -7 -8 -4 -10 4 -18 -6 -25 -33 -7 -25 -10 -30 -11 -15 -1 12
-6 22 -12 22 -12 0 31 39 43 40 4 0 10 -4 13 -10z m85 -36 c-7 -8 -10 -17 -6
-21 11 -12 177 -15 276 -5 88 8 110 8 99 -2 -2 -2 -96 -9 -209 -15 -113 -6
-295 -23 -405 -36 -199 -25 -242 -29 -234 -21 4 4 283 39 434 55 44 5 70 9 57
10 -29 1 -37 23 -21 53 8 14 14 18 17 10 2 -7 -2 -19 -8 -28z m263 21 c-5 -14
-2 -14 22 -3 22 10 28 9 35 -2 5 -8 7 -17 4 -19 -3 -3 -9 0 -13 8 -7 10 -14
10 -38 -3 -36 -18 -50 -10 -26 16 20 22 24 23 16 3z m-1523 -5 c0 -5 -4 -10
-10 -10 -5 0 -10 5 -10 10 0 6 5 10 10 10 6 0 10 -4 10 -10z m545 0 c-3 -5
-11 -10 -16 -10 -6 0 -7 5 -4 10 3 6 11 10 16 10 6 0 7 -4 4 -10z m435 -30 c0
-29 -4 -40 -15 -40 -8 0 -15 9 -15 20 0 11 5 20 10 20 6 0 10 9 10 20 0 11 2
20 5 20 3 0 5 -18 5 -40z m69 -7 c-1 -17 -2 -17 -6 0 -2 9 -9 15 -14 12 -5 -4
-9 3 -9 15 0 19 2 20 15 6 8 -8 14 -23 14 -33z m179 19 c2 -12 -1 -22 -6 -22
-6 0 -8 10 -5 23 l5 22 -21 -23 c-22 -25 -42 -22 -40 6 1 14 2 14 6 -1 4 -18
6 -17 20 3 18 25 37 22 41 -8z m-1854 -8 c-6 -24 -4 -26 17 -20 13 3 9 -1 -10
-10 -18 -8 -41 -12 -49 -9 -12 4 -10 11 13 35 35 37 37 37 29 4z m1636 -19 c0
-17 -2 -17 -10 -5 -5 8 -10 24 -10 35 0 17 2 17 10 5 5 -8 10 -24 10 -35z
m-806 7 c-18 -56 -26 -62 -68 -56 -69 9 -86 14 -86 25 0 6 9 7 23 3 34 -11 68
-6 84 14 13 15 13 15 3 -5 -6 -13 -8 -23 -5 -23 3 0 8 0 13 0 4 0 7 4 7 9 0 5
3 13 8 17 4 4 7 16 7 26 0 11 4 17 10 13 5 -3 7 -13 4 -23z m709 11 c-2 -7 4
-10 12 -7 8 4 15 2 15 -4 0 -5 -7 -12 -15 -16 -8 -3 -15 -1 -15 5 0 6 -6 9
-12 6 -7 -2 -12 -11 -10 -18 3 -11 1 -12 -9 -2 -10 11 -9 16 7 27 19 15 19 15
-1 12 -12 -2 -21 -12 -23 -24 -2 -12 -7 -22 -12 -22 -10 0 -2 28 13 48 12 16
53 11 50 -5z m184 1 c-3 -3 -12 -4 -19 -1 -8 3 -5 6 6 6 11 1 17 -2 13 -5z
m-1014 -17 c4 3 7 1 7 -6 0 -8 -7 -10 -19 -6 -11 3 -25 0 -32 -8 -13 -13 -49
-12 -49 2 0 11 64 27 76 19 6 -4 14 -5 17 -1z m42 3 c-3 -5 -12 -10 -18 -10
-7 0 -6 4 3 10 19 12 23 12 15 0z m-1055 -4 c0 -2 -9 -6 -20 -9 -11 -3 -18 -1
-14 4 5 9 34 13 34 5z m20 -21 c0 -13 -42 -86 -46 -82 -3 3 3 20 12 39 10 18
17 36 16 41 -1 4 3 7 8 7 6 0 10 -2 10 -5z m280 -48 c0 -5 -4 -5 -10 -2 -5 3
-10 14 -10 23 0 15 2 15 10 2 5 -8 10 -19 10 -23z m130 9 c0 -3 -4 -8 -10 -11
-5 -3 -10 -1 -10 4 0 6 5 11 10 11 6 0 10 -2 10 -4z m1676 -15 c-3 -5 1 -11 9
-15 8 -3 17 -1 20 5 4 5 10 7 15 4 5 -3 25 -7 45 -9 26 -2 35 2 36 13 0 11 2
12 6 4 2 -7 11 -13 19 -13 8 0 14 -9 13 -22 -1 -17 -2 -19 -6 -5 -6 22 -12 22
-40 -5 -23 -22 -33 -12 -11 10 9 9 8 12 -4 12 -9 0 -19 -6 -21 -12 -4 -10 -8
-9 -16 2 -7 10 -11 11 -11 3 0 -7 -5 -13 -11 -13 -6 0 -8 8 -5 18 6 16 5 16
-8 0 -14 -19 -32 -25 -21 -8 4 6 3 10 -2 9 -4 -1 -19 0 -33 1 -18 2 -20 4 -7
7 9 2 15 9 12 14 -4 5 1 9 10 9 9 0 14 -4 11 -9z m272 -4 c13 3 22 1 22 -6 0
-7 -5 -9 -12 -5 -10 6 -10 5 -1 -7 10 -13 10 -16 -2 -16 -8 0 -15 4 -15 8 0 5
-11 3 -25 -3 -31 -14 -40 -6 -25 22 8 15 15 18 24 11 6 -6 22 -8 34 -4z
m-1294 -25 c-11 -11 -37 -27 -59 -36 l-40 -16 34 30 c19 16 38 27 41 25 4 -3
13 2 20 10 7 9 15 13 17 11 3 -3 -3 -14 -13 -24z m758 -7 c-2 -19 -5 -35 -7
-35 -2 0 -5 16 -7 35 -2 21 0 35 7 35 7 0 9 -14 7 -35z m-52 10 c0 -8 -7 -15
-15 -15 -16 0 -20 12 -8 23 11 12 23 8 23 -8z m210 -13 c0 -15 -2 -15 -10 -2
-8 12 -10 12 -10 1 0 -8 -3 -12 -6 -8 -4 3 -4 13 0 22 7 20 26 10 26 -13z m27
8 c-1 -11 -5 -20 -9 -20 -4 0 -8 9 -8 20 0 11 4 20 9 20 6 0 9 -9 8 -20z
m-1384 -7 c-26 -9 -13 -25 15 -19 25 6 25 5 9 -8 -14 -11 -15 -15 -5 -20 7 -3
3 -3 -9 -1 -12 3 -24 1 -28 -5 -3 -5 -12 -10 -18 -10 -7 0 -4 6 5 14 14 10 15
15 5 25 -9 10 -8 15 7 27 11 7 22 11 25 8 3 -4 0 -9 -6 -11z m1252 6 c4 -6 4
-13 0 -17 -3 -3 -10 0 -14 7 -7 11 -11 9 -20 -5 -8 -15 -10 -16 -11 -3 0 28
31 41 45 18z m65 1 c0 -15 -18 -21 -23 -8 -3 7 -6 4 -6 -7 -1 -17 -3 -17 -11
-5 -14 22 -13 25 15 28 14 1 25 -2 25 -8z m-1806 -47 c-4 -36 -3 -44 5 -33 6
8 11 29 11 45 0 21 3 26 9 16 9 -14 -3 -65 -22 -88 -11 -15 -4 -16 42 -7 28 6
31 10 32 43 0 29 2 32 9 16 5 -12 9 -14 9 -6 1 8 4 12 7 9 3 -3 0 -15 -7 -27
-7 -11 -11 -22 -9 -24 3 -3 30 -1 60 4 30 4 141 11 245 14 105 3 214 7 243 10
28 2 52 -1 52 -6 0 -5 -29 -9 -65 -9 -51 0 -65 -3 -65 -15 0 -18 21 -20 39 -2
11 10 12 8 4 -8 -6 -11 -8 -27 -6 -35 3 -9 0 -8 -7 3 -11 17 -13 17 -31 -4
l-20 -23 7 42 7 42 -102 0 c-97 0 -334 -22 -427 -39 -39 -8 -58 -1 -36 13 4 2
7 26 6 53 -2 45 1 63 11 63 3 0 2 -21 -1 -47z m267 28 c-7 -5 -12 -11 -12 -15
1 -3 1 -16 0 -28 0 -23 0 -23 -10 1 -7 18 -5 28 7 43 10 10 20 16 23 13 3 -4
0 -10 -8 -14z m402 0 c2 -10 1 -25 -4 -32 -6 -10 -9 -4 -9 19 0 36 5 42 13 13z
m1269 -3 c-7 -7 -12 -8 -12 -2 0 6 3 14 7 17 3 4 9 5 12 2 2 -3 -1 -11 -7 -17z
m-1334 -8 c-14 -22 -24 -19 -15 5 4 8 11 15 17 15 6 0 6 -7 -2 -20z m358 1
c-8 -13 -65 -41 -83 -41 -7 0 -13 -4 -13 -10 0 -5 -8 -10 -17 -10 -14 0 -14 3
5 20 12 11 29 20 39 20 10 0 29 9 43 20 25 19 37 20 26 1z m-589 0 c22 8 24 7
19 -8 -4 -9 -1 -20 6 -25 10 -6 8 -8 -4 -8 -10 0 -18 7 -18 15 0 8 -4 15 -10
15 -5 0 -7 -7 -4 -15 4 -8 1 -15 -6 -15 -6 0 -9 4 -5 9 11 18 -15 22 -40 5
-14 -9 -25 -12 -25 -5 0 13 54 42 58 31 2 -5 15 -5 29 1z m200 -14 c0 -7 -8
-14 -18 -14 -14 -1 -18 11 -10 34 3 8 28 -10 28 -20z m64 4 c-11 -7 -11 -10 0
-14 10 -4 9 -6 -3 -6 -10 -1 -18 3 -18 7 0 12 23 33 29 26 3 -3 -1 -9 -8 -13z
m-514 -23 c-3 -7 -5 -2 -5 12 0 14 2 19 5 13 2 -7 2 -19 0 -25z m52 0 c0 -13
-3 -17 -6 -9 -4 10 -7 10 -13 1 -5 -8 -9 -7 -13 5 -4 9 -3 13 2 10 5 -3 12 -1
16 5 10 16 15 12 14 -12z m-109 2 c0 -5 -5 -10 -11 -10 -5 0 -7 -4 -4 -10 3
-5 -1 -10 -10 -10 -13 0 -14 4 -5 20 11 21 30 27 30 10z m147 4 c-3 -3 -12 -4
-19 -1 -8 3 -5 6 6 6 11 1 17 -2 13 -5z m1987 -17 c16 3 23 0 23 -11 0 -9 -4
-16 -9 -16 -4 0 -8 5 -8 11 0 8 -4 8 -14 0 -11 -9 -15 -9 -20 1 -5 10 -7 10
-12 1 -3 -7 -12 -13 -20 -13 -8 0 -14 6 -15 13 0 10 -2 10 -6 0 -2 -7 -9 -13
-14 -13 -4 0 -6 7 -3 15 7 18 34 20 34 3 0 -7 8 -2 18 10 11 15 18 17 20 8 2
-8 12 -11 26 -9z m-504 -12 c5 3 8 -4 7 -15 -1 -10 -7 -22 -14 -24 -9 -4 -13
5 -12 32 1 20 3 29 6 19 2 -9 8 -15 13 -12z m72 -5 c-2 -16 -6 -30 -8 -30 -2
0 -4 14 -4 30 0 17 4 30 8 30 5 0 7 -13 4 -30z m106 18 c-5 -19 -31 -48 -45
-48 -19 0 -16 11 10 37 25 24 38 29 35 11z m69 -3 c-4 -8 -2 -17 3 -20 6 -4
10 -14 9 -23 0 -10 -3 -12 -5 -5 -3 7 -11 10 -19 7 -21 -9 -26 11 -7 34 20 25
26 28 19 7z m94 -11 c31 3 39 1 39 -12 0 -13 -2 -14 -9 -4 -6 10 -10 10 -21
-3 -10 -12 -16 -13 -26 -4 -10 8 -14 8 -14 0 0 -23 -38 -11 -42 14 -5 26 6 35
15 13 3 -8 6 -4 7 7 2 17 3 17 7 3 3 -14 13 -17 44 -14z m-948 -31 c6 -31 -1
-55 -14 -48 -4 3 -6 12 -2 20 5 15 -13 45 -27 45 -7 0 -17 -36 -22 -77 -1 -7
-4 -11 -6 -8 -3 3 -11 0 -19 -6 -18 -15 -17 -12 12 46 23 45 49 69 66 59 4 -2
9 -16 12 -31z m654 13 c0 -7 -6 -13 -14 -13 -7 0 -13 8 -13 18 0 11 5 16 13
13 8 -3 14 -11 14 -18z m498 -6 c-3 -5 -12 -10 -18 -10 -7 0 -6 4 3 10 19 12
23 12 15 0z m-1762 -45 c-26 -21 -39 -18 -20 3 10 10 17 25 17 33 1 10 4 8 11
-4 9 -14 7 -22 -8 -32z m-149 9 l-7 -25 28 25 c29 27 61 27 77 2 6 -8 8 -7 8
2 0 6 8 12 18 12 15 -1 15 -2 -2 -15 -14 -10 -23 -12 -32 -4 -8 7 -14 6 -17
-3 -3 -8 -6 -5 -6 7 -1 18 -3 18 -21 -5 -13 -17 -20 -20 -20 -10 0 12 -3 11
-11 -2 -5 -10 -14 -18 -19 -18 -11 0 -14 43 -3 53 12 12 13 7 7 -19z m291 17
c-3 -5 3 -12 12 -14 14 -4 13 -5 -4 -6 -14 -1 -23 5 -23 14 0 8 5 15 11 15 5
0 8 -4 4 -9z m275 -16 c0 -17 -5 -25 -17 -24 -11 0 -13 3 -5 6 17 7 15 23 -3
23 -8 0 -15 5 -15 10 0 6 9 10 20 10 15 0 20 -7 20 -25z m-795 5 c4 -6 -6 -10
-22 -9 -25 0 -26 1 -8 9 11 5 21 9 22 9 1 1 5 -3 8 -9z m180 -21 c-4 -5 -15
-14 -25 -19 -16 -8 -18 -8 -14 5 4 8 2 15 -4 15 -6 0 -13 -6 -15 -12 -3 -8 -6
-7 -6 4 -1 11 8 18 27 20 32 4 44 0 37 -13z m775 11 c-9 -6 -10 -10 -3 -10 15
0 25 -32 17 -54 -3 -9 -14 -16 -25 -16 -10 0 -29 -12 -43 -27 -14 -15 -28 -24
-31 -21 -3 3 7 19 23 36 16 17 27 33 25 36 -3 3 4 2 16 -1 23 -6 29 15 10 34
-13 13 -4 33 14 33 7 0 6 -4 -3 -10z m1070 -5 c0 -8 -9 -15 -21 -15 -11 0 -17
5 -14 10 4 6 11 8 16 5 5 -4 9 -1 9 4 0 6 2 11 5 11 3 0 5 -7 5 -15z m-406
-16 c-6 -10 52 -6 63 4 12 12 23 7 23 -10 0 -14 -2 -15 -9 -5 -6 11 -10 10
-15 -4 -6 -16 -8 -16 -16 -4 -6 8 -10 10 -10 5 0 -14 -43 -14 -52 -1 -13 19
-9 36 7 30 8 -4 12 -10 9 -15z m166 14 c0 -5 -5 -15 -10 -23 -8 -12 -10 -11
-10 8 0 12 5 22 10 22 6 0 10 -3 10 -7z m300 -4 c26 -9 34 -9 41 2 7 11 9 11
9 -3 0 -11 6 -15 20 -11 15 4 20 0 20 -13 0 -13 -3 -15 -8 -7 -6 10 -12 10
-28 -2 -24 -18 -34 -19 -34 -1 0 8 -8 13 -17 11 -10 -1 -23 2 -30 7 -7 6 -15
3 -22 -9 -6 -10 -11 -15 -11 -10 0 6 22 47 26 47 1 0 16 -5 34 -11z m-2165
-18 c-3 -6 -11 -11 -17 -11 -6 0 -6 6 2 15 14 17 26 13 15 -4z m64 -31 c1 -13
0 -13 -9 0 -5 8 -9 24 -9 35 0 20 0 20 9 0 5 -11 9 -27 9 -35z m29 30 c-14
-22 -24 -19 -15 5 4 8 11 15 17 15 6 0 6 -7 -2 -20z m38 -7 c-10 -10 -19 5
-10 18 6 11 8 11 12 0 2 -7 1 -15 -2 -18z m46 20 c-6 -3 -9 -10 -6 -15 4 -6 2
-8 -4 -4 -5 3 -13 0 -15 -6 -3 -7 -6 -4 -6 7 -1 15 6 21 22 22 12 0 16 -1 9
-4z m1008 -8 c9 -10 9 -15 1 -15 -6 0 -11 4 -11 9 0 5 -8 12 -17 14 -15 4 -15
5 -2 6 9 0 22 -6 29 -14z m698 -5 c-7 -10 -14 -17 -17 -15 -4 4 18 35 25 35 2
0 -1 -9 -8 -20z m142 9 c0 -6 -4 -7 -10 -4 -5 3 -10 1 -10 -5 0 -7 -7 -10 -15
-6 -8 3 -15 0 -16 -7 0 -7 -4 -3 -9 8 -5 11 -9 14 -9 6 -1 -7 -7 -11 -16 -7
-8 3 -15 2 -15 -3 0 -4 -7 -8 -15 -8 -24 0 -12 21 16 27 42 10 99 9 99 -1z
m-1203 -5 c-3 -3 -12 -4 -19 -1 -8 3 -5 6 6 6 11 1 17 -2 13 -5z m-917 -14 c0
-5 -2 -10 -4 -10 -3 0 -8 5 -11 10 -3 6 -1 10 4 10 6 0 11 -4 11 -10z m981
-10 c-26 -22 -39 -24 -61 -10 -12 8 -10 10 10 10 14 0 32 5 40 10 27 17 36 10
11 -10z m-394 -25 c10 0 24 4 31 9 7 4 12 2 12 -8 0 -8 -7 -13 -17 -11 -10 1
-24 -2 -30 -8 -9 -6 -13 -6 -13 3 0 7 -7 10 -16 6 -12 -5 -15 -2 -10 10 3 8 6
21 7 27 0 7 4 3 9 -9 4 -12 16 -20 27 -19z m-185 13 c-7 -7 -12 -20 -12 -29 0
-10 -5 -21 -10 -24 -14 -9 -7 30 9 49 7 9 16 16 19 16 3 0 1 -5 -6 -12z m131
-17 c-4 -15 -8 -19 -13 -10 -5 6 -3 18 3 24 16 17 17 14 10 -14z m298 -2 c-26
-21 -41 -24 -41 -9 0 6 6 10 14 10 7 0 19 7 26 15 7 9 16 13 19 9 3 -3 -5 -14
-18 -25z m443 -65 c-6 -31 -7 -31 -52 -26 -44 5 -61 15 -62 36 0 5 25 6 55 2
l55 -6 -5 47 c-4 45 -4 46 5 13 5 -19 7 -49 4 -66z m51 54 c-14 -21 -15 -21
-12 -3 4 29 20 52 25 37 2 -6 -4 -22 -13 -34z m-411 6 c19 -34 80 -129 86
-134 4 -3 10 -14 14 -24 9 -25 16 -17 63 68 21 38 45 71 53 74 10 2 11 1 4 -5
-6 -4 -22 -28 -34 -53 -12 -25 -32 -58 -42 -73 -16 -23 -20 -43 -19 -105 0
-42 6 -101 13 -130 6 -28 9 -54 7 -56 -2 -2 -40 -6 -84 -8 -45 -3 -67 -2 -50
2 17 4 52 8 79 9 42 1 47 3 41 19 -4 9 -9 44 -13 77 -4 47 -10 64 -29 78 -13
11 -22 22 -19 25 3 2 12 0 20 -7 11 -9 15 -7 18 13 4 18 -8 44 -40 93 -71 108
-104 165 -91 161 7 -2 17 -13 23 -24z m-457 -8 c-12 -12 -17 -13 -21 -3 -5 9
-7 9 -12 0 -8 -19 -24 -16 -24 4 0 9 3 14 6 11 3 -3 17 -3 32 2 34 9 39 5 19
-14z m1021 -47 l-3 -54 -5 62 c-3 34 -1 58 3 54 5 -4 7 -32 5 -62z m350 41
c15 0 15 -2 2 -10 -13 -9 -13 -11 0 -20 12 -8 9 -9 -10 -7 -14 2 -26 9 -26 15
-3 26 -6 26 -14 2 -8 -24 -8 -23 -9 8 -1 20 3 31 9 27 6 -3 10 0 10 7 0 8 5 6
11 -4 5 -10 18 -18 27 -18z m143 -16 c-5 -24 -9 -30 -10 -16 -1 12 -5 22 -11
22 -5 0 -10 5 -10 10 0 6 7 10 15 10 8 0 15 5 15 12 0 6 2 9 5 6 3 -3 1 -23
-4 -44z m-1710 4 c17 2 33 11 36 19 5 12 7 12 15 1 8 -10 11 -10 15 0 2 6 9
10 14 6 11 -6 -7 -44 -21 -44 -6 0 -11 8 -11 18 -1 15 -2 16 -6 0 -2 -10 -10
-15 -19 -11 -8 3 -14 1 -14 -3 0 -5 -11 -9 -24 -9 -13 0 -22 3 -19 8 8 13 -10
7 -29 -10 -17 -15 -18 -15 -18 7 0 16 4 21 16 16 11 -4 18 1 22 16 6 22 7 22
10 2 2 -17 8 -20 33 -16z m759 27 c0 -2 -10 -9 -22 -15 -22 -11 -22 -10 -4 4
21 17 26 19 26 11z m434 -108 l-6 -102 31 59 c18 35 29 67 25 78 -10 33 32 22
46 -13 10 -23 15 -27 22 -17 7 10 8 9 4 -4 -3 -10 4 -43 14 -73 11 -31 24 -82
30 -114 11 -59 28 -221 23 -221 -1 0 -16 20 -33 44 -30 45 -39 76 -20 76 6 0
10 -6 9 -12 -3 -20 12 -49 22 -42 5 3 7 22 4 42 -25 154 -85 346 -102 329 -2
-3 1 -15 7 -27 6 -11 13 -38 16 -59 4 -36 2 -40 -26 -49 -35 -13 -39 -1 -10
28 18 18 22 51 8 66 -7 6 -31 -33 -35 -56 -1 -8 -7 -33 -12 -55 -6 -22 -11
-65 -12 -95 -1 -30 -4 -43 -6 -27 -3 19 -10 27 -26 28 -21 2 -21 2 2 6 23 5
23 6 16 76 -13 113 -9 250 7 241 4 -3 5 -51 2 -107z m447 94 c7 12 11 11 26
-3 13 -14 15 -20 5 -30 -9 -9 -12 -8 -12 8 0 10 -4 15 -8 9 -4 -5 -14 -11 -23
-13 -13 -2 -15 4 -11 25 5 22 7 24 10 9 3 -15 6 -16 13 -5z m159 5 c0 -23 -31
-49 -43 -37 -7 7 -3 17 14 30 29 25 29 25 29 7z m168 -11 c-1 -14 -9 -25 -17
-25 -11 0 -12 3 -4 11 6 6 9 18 6 25 -3 8 0 14 6 14 6 0 10 -11 9 -25z m47 6
c-3 -12 0 -21 10 -25 11 -4 15 1 15 17 0 18 2 19 10 7 8 -12 10 -12 10 5 1 18
2 18 10 -2 10 -24 34 -31 45 -13 11 18 25 11 25 -12 0 -16 -3 -19 -8 -10 -9
13 -42 6 -42 -8 0 -5 -12 -6 -27 -4 -16 2 -39 5 -53 7 -16 1 -26 9 -27 22 -3
20 -3 20 6 0 9 -18 10 -17 10 8 1 15 6 27 12 27 6 0 8 -8 4 -19z m-2122 -8
c-4 -10 -2 -14 4 -10 7 4 10 0 9 -9 -1 -9 -11 -21 -22 -27 -17 -9 -17 -9 -6 6
8 9 11 21 7 27 -3 5 -3 15 0 20 10 16 15 12 8 -7z m347 13 c0 -2 -6 -9 -14
-15 -11 -9 -16 -9 -22 0 -4 7 -3 9 4 5 6 -3 13 -2 17 4 6 10 15 14 15 6z
m1660 -16 c0 -15 -18 -21 -24 -8 -3 7 -4 0 -1 -15 4 -19 2 -26 -5 -22 -11 7
-14 48 -4 58 8 7 34 -3 34 -13z m34 -5 c-7 -16 -24 -21 -24 -6 0 8 7 13 27 20
1 1 0 -6 -3 -14z m-1384 -6 c0 -4 -11 -6 -24 -3 -14 2 -34 -4 -49 -16 -36 -28
-48 -24 -13 5 28 22 86 32 86 14z m695 1 c3 -5 1 -10 -4 -10 -6 0 -11 5 -11
10 0 6 2 10 4 10 3 0 8 -4 11 -10z m-495 -10 c24 -8 24 -8 -5 -9 -16 0 -37 4
-45 9 -12 8 -11 10 5 9 11 -1 31 -5 45 -9z m312 -16 c-5 -8 -6 -35 -2 -60 8
-50 -6 -61 -15 -11 -5 25 -3 60 4 85 1 1 6 2 11 2 7 0 8 -6 2 -16z m-258 -9
c-4 -8 -11 -15 -16 -15 -6 0 -5 6 2 15 7 8 14 15 16 15 2 0 1 -7 -2 -15z
m1546 5 c0 -5 -4 -10 -10 -10 -5 0 -10 5 -10 10 0 6 5 10 10 10 6 0 10 -4 10
-10z m-2200 -25 c17 0 34 3 36 7 8 12 24 -1 24 -18 0 -8 -4 -12 -10 -9 -5 3
-10 0 -10 -7 0 -10 -2 -10 -9 1 -5 7 -13 11 -19 7 -6 -3 -13 -2 -17 4 -4 7
-12 7 -26 0 -13 -8 -19 -7 -19 0 0 6 -4 8 -10 5 -14 -9 -12 3 3 19 8 10 14 11
19 3 4 -6 21 -12 38 -12z m398 14 c-2 -6 -8 -10 -13 -10 -5 0 -11 4 -13 10 -2
6 4 11 13 11 9 0 15 -5 13 -11z m102 -10 c0 -6 -4 -7 -10 -4 -5 3 -10 11 -10
16 0 6 5 7 10 4 6 -3 10 -11 10 -16z m486 -31 c-7 -23 -19 -44 -26 -46 -10 -4
-9 -6 1 -13 18 -11 6 -21 -15 -13 -22 8 -20 26 4 47 11 9 20 27 20 40 0 26 9
39 20 32 5 -3 2 -24 -4 -47z m-876 32 c0 -5 -4 -10 -10 -10 -5 0 -10 5 -10 10
0 6 5 10 10 10 6 0 10 -4 10 -10z m109 -13 c0 -8 -2 -8 -6 1 -4 10 -8 9 -19
-5 -12 -16 -13 -16 -14 -1 0 16 19 29 33 21 4 -2 7 -10 6 -16z m121 15 c0 -4
-10 -9 -22 -9 -18 -2 -20 0 -8 7 18 12 30 13 30 2z m1224 -17 c-9 -14 -14 -36
-12 -50 3 -13 1 -22 -3 -19 -19 11 2 94 23 94 5 0 1 -11 -8 -25z m-1407 8 c-4
-3 -2 -12 4 -20 15 -17 -1 -16 -23 1 -19 14 -14 26 10 26 9 0 12 -3 9 -7z
m1245 -28 c-2 -14 -9 -25 -14 -25 -6 0 -7 7 -4 16 3 9 6 22 6 30 0 9 4 13 9
10 4 -3 6 -17 3 -31z m63 15 c-6 -18 -4 -19 20 -10 15 6 24 6 20 1 -3 -5 -1
-12 5 -16 19 -12 0 -24 -36 -22 -19 2 -39 9 -44 16 -6 11 -9 8 -13 -10 -4 -22
-4 -22 -6 4 -1 24 2 27 19 22 16 -5 20 -2 20 14 0 12 5 21 11 21 6 0 8 -9 4
-20z m-1656 -4 c5 -4 12 -2 15 2 3 5 21 9 40 10 26 1 34 -2 30 -13 -3 -7 -12
-16 -19 -19 -9 -3 -12 0 -8 10 5 14 -16 17 -27 3 -10 -13 -65 -14 -62 -1 3 19
-16 14 -28 -8 -11 -21 -30 -27 -30 -9 0 5 5 7 10 4 6 -3 10 -1 10 4 0 6 -4 11
-10 11 -5 0 -10 4 -10 10 0 10 71 7 89 -4z m671 -6 c0 -11 -4 -20 -10 -20 -5
0 -10 5 -10 10 0 6 -7 10 -15 10 -8 0 -15 -5 -15 -11 0 -5 5 -7 12 -3 6 4 8 3
5 -3 -4 -6 -18 -10 -32 -10 l-26 0 22 23 c28 30 69 32 69 4z m290 -1 c0 -5 -5
-9 -11 -9 -6 0 -33 -16 -59 -35 -27 -20 -51 -31 -54 -26 -4 5 20 27 51 48 55
38 73 43 73 22z m875 -37 c-6 -15 -8 -15 -21 2 -11 15 -14 16 -14 5 0 -9 -7
-16 -15 -16 -8 0 -15 9 -15 19 0 18 22 20 48 4 7 -4 12 -4 11 1 -1 4 0 17 1
28 2 17 3 17 7 -3 3 -13 2 -31 -2 -40z m-1367 -1 c31 -45 45 -79 38 -90 -4 -6
3 -15 16 -20 13 -6 18 -10 11 -10 -6 -1 -13 -8 -15 -17 -2 -10 -9 -3 -19 20
-9 19 -12 33 -8 30 11 -6 11 -1 3 20 -3 9 -10 13 -15 10 -5 -3 -8 -2 -7 3 4
12 -23 73 -33 73 -4 0 -10 -4 -13 -9 -5 -8 20 -107 45 -176 11 -29 37 -106 45
-134 3 -9 16 -12 50 -7 55 6 61 11 45 30 -8 9 -9 16 -2 21 6 3 13 -6 17 -20 4
-17 11 -24 20 -21 8 3 14 2 14 -3 0 -8 -148 -31 -197 -31 -16 0 -26 14 -46 68
-13 37 -23 81 -22 98 1 26 -2 30 -17 26 -15 -4 -17 -11 -12 -41 4 -20 12 -42
18 -50 9 -12 7 -13 -9 -8 -18 6 -18 5 3 -12 12 -11 22 -26 22 -34 0 -8 7 -20
15 -27 8 -7 12 -16 9 -21 -9 -16 -24 -10 -24 9 0 18 -31 62 -43 62 -3 0 -5
-10 -4 -22 0 -13 -3 -31 -7 -40 -5 -11 -4 -18 2 -18 6 0 13 8 15 18 4 14 5 14
6 1 0 -9 -6 -22 -14 -29 -8 -7 -15 -20 -15 -29 0 -9 -5 -22 -12 -29 -9 -9 -9
-15 0 -24 9 -9 16 -8 30 5 18 17 19 16 18 -12 -1 -16 -4 -27 -8 -25 -3 2 -9
-9 -13 -26 -7 -30 -21 -47 -32 -36 -3 3 2 17 11 32 10 14 15 28 12 32 -3 3 -6
0 -6 -6 0 -21 -20 -13 -32 13 -8 19 -8 28 2 39 9 12 47 245 50 309 0 5 6 5 13
1 10 -6 10 -4 0 7 -7 7 -13 20 -13 28 0 9 12 -2 26 -22 14 -21 23 -41 20 -44
-3 -3 1 -15 9 -27 21 -28 20 -58 0 -32 -18 24 -19 19 -4 -23 6 -17 15 -31 21
-31 6 0 8 -6 5 -14 -6 -15 19 -56 34 -56 12 0 12 57 -1 65 -5 3 -10 11 -10 18
0 6 7 2 15 -9 21 -27 18 -10 -5 33 -11 21 -20 43 -20 50 0 7 -12 49 -26 93
-14 45 -23 88 -20 95 7 20 44 7 64 -24z m519 17 c-3 -8 -6 -5 -6 6 -1 11 2 17
5 13 3 -3 4 -12 1 -19z m936 15 c-21 -8 -15 -22 7 -16 12 3 20 0 20 -6 0 -7
-5 -9 -10 -6 -6 4 -16 2 -23 -4 -10 -7 -13 -4 -15 15 -1 17 3 24 16 23 10 0
12 -3 5 -6z m61 -9 c-17 -14 -17 -15 -1 -10 11 3 16 2 12 -4 -6 -10 -35 -14
-35 -6 0 17 15 36 28 36 13 0 12 -3 -4 -16z m206 -3 c0 -10 -9 -29 -21 -42
l-21 -24 17 28 c9 16 14 35 11 43 -3 8 -1 14 4 14 6 0 10 -9 10 -19z m-1125
-1 c-3 -5 -12 -10 -18 -10 -7 0 -6 4 3 10 19 12 23 12 15 0z m974 -7 c0 -11
-3 -13 -6 -5 -2 6 -9 10 -14 6 -5 -3 -9 0 -9 5 0 6 7 11 15 11 8 0 15 -8 14
-17z m-1299 -28 c28 -14 50 -29 50 -34 0 -5 -20 2 -45 15 -24 14 -48 23 -52
21 -5 -3 -14 1 -21 9 -21 23 12 18 68 -11z m-789 2 c-6 -8 -9 -17 -6 -21 3 -3
0 -2 -6 3 -12 10 -4 31 13 31 7 0 7 -4 -1 -13z m54 -38 c-3 -4 -21 -8 -39 -7
-30 1 -32 2 -17 17 12 13 17 13 19 4 5 -20 22 -5 23 20 0 22 0 22 10 -1 5 -13
7 -28 4 -33z m127 25 c-2 -11 -8 -23 -12 -28 -5 -5 -6 2 -3 15 5 24 5 24 -11
4 -10 -11 -15 -14 -11 -7 3 6 1 12 -4 12 -6 0 -11 -4 -11 -8 0 -5 -13 -9 -30
-10 -24 -1 -30 3 -30 21 0 13 3 17 8 11 9 -13 49 -11 63 3 17 17 44 8 41 -13z
m252 2 c-6 -15 -24 -23 -24 -11 0 8 24 34 28 30 1 -1 0 -10 -4 -19z m1091 14
c3 -5 1 -10 -4 -10 -6 0 -11 5 -11 10 0 6 2 10 4 10 3 0 8 -4 11 -10z m-485
-10 c0 -5 -5 -10 -11 -10 -5 0 -7 5 -4 10 3 6 8 10 11 10 2 0 4 -4 4 -10z m90
0 c0 -12 -57 -14 -63 -2 -3 4 10 8 29 9 19 2 34 -2 34 -7z m32 -27 c-6 -2 -10
-9 -6 -14 3 -5 0 -9 -5 -9 -6 0 -11 7 -11 15 0 8 8 15 18 14 10 0 12 -3 4 -6z
m-382 -30 c0 -12 -2 -12 -15 1 -8 8 -15 17 -15 20 0 3 7 3 15 0 8 -4 15 -13
15 -21z m345 17 c-3 -5 -12 -10 -18 -10 -7 0 -6 4 3 10 19 12 23 12 15 0z
m295 -75 c0 -1 -6 -2 -13 -2 -7 0 -13 7 -13 16 0 9 -4 27 -8 41 -3 14 2 7 14
-14 11 -22 20 -40 20 -41z m-210 55 c0 -5 -4 -10 -10 -10 -5 0 -10 5 -10 10 0
6 5 10 10 10 6 0 10 -4 10 -10z m37 3 c-4 -3 -2 -12 4 -20 9 -10 8 -13 -5 -13
-9 0 -16 6 -16 13 0 14 9 27 18 27 3 0 2 -3 -1 -7z m-11 -55 c13 2 24 -1 24
-7 0 -9 -10 -12 -35 -11 -3 1 -13 -6 -21 -15 -9 -8 -23 -15 -32 -15 -13 0 -11
5 8 20 14 11 19 20 13 20 -7 0 -13 8 -13 18 -1 13 -4 11 -15 -8 l-14 -25 -1
38 0 37 31 -27 c20 -18 39 -27 55 -25z m104 48 c0 -3 -4 -8 -10 -11 -5 -3 -10
-1 -10 4 0 6 5 11 10 11 6 0 10 -2 10 -4z m36 -66 c0 -27 -4 -50 -8 -50 -3 0
-11 -14 -17 -32 -17 -49 -22 -28 -6 27 8 26 15 61 15 77 0 15 4 28 9 28 5 0 8
-22 7 -50z m-26 23 c0 -23 -33 -112 -55 -149 -14 -23 -25 -45 -25 -49 0 -4 15
-4 33 -1 24 5 27 4 12 -3 -14 -7 -16 -10 -4 -10 8 -1 20 4 25 9 7 7 21 6 45
-3 19 -8 39 -13 44 -11 6 2 24 -8 40 -21 36 -30 22 -32 -36 -5 -24 11 -55 20
-69 20 -43 0 -100 -20 -100 -35 0 -8 4 -15 10 -15 5 0 7 -7 4 -15 -4 -10 -20
-15 -50 -15 -25 0 -56 -7 -70 -16 -13 -9 -27 -14 -31 -10 -3 3 -1 6 5 6 7 0
12 5 12 10 0 6 -10 10 -22 10 -12 0 -19 3 -15 6 3 3 33 6 67 7 54 2 61 4 67
25 3 12 9 22 14 22 16 0 9 62 -13 121 -16 41 -27 57 -37 54 -11 -5 -12 -3 -1
10 16 19 30 19 30 1 0 -7 7 -27 15 -42 8 -16 15 -37 15 -47 0 -10 5 -15 10
-12 6 3 10 18 10 33 0 18 3 23 9 14 6 -10 11 -6 19 15 11 29 25 97 16 76 -9
-21 -23 -15 -17 7 5 18 43 30 43 13z m-390 -20 c-8 -3 -18 -10 -21 -15 -8 -12
-51 -19 -43 -7 7 12 43 28 64 28 13 -1 13 -1 0 -6z m-1290 -13 c0 -5 -2 -10
-4 -10 -3 0 -8 5 -11 10 -3 6 -1 10 4 10 6 0 11 -4 11 -10z m929 -50 c0 -9 -6
-4 -14 10 -19 33 -19 49 0 24 8 -10 14 -26 14 -34z m815 14 c3 -8 2 -12 -4 -9
-6 3 -10 10 -10 16 0 14 7 11 14 -7z m-509 -4 c3 -5 1 -10 -4 -10 -6 0 -11 5
-11 10 0 6 2 10 4 10 3 0 8 -4 11 -10z m264 -1 c17 -6 36 -20 41 -30 8 -15 7
-17 -5 -13 -8 4 -15 10 -15 15 0 5 -4 9 -10 9 -21 0 -8 -46 20 -74 17 -16 30
-33 30 -38 0 -5 -16 8 -36 29 -24 25 -37 48 -38 68 -1 18 -6 29 -13 28 -7 -2
-13 2 -13 7 0 12 0 12 39 -1z m217 -46 c-7 -17 -8 -17 -17 0 -12 21 -2 44 13
29 6 -6 8 -19 4 -29z m-288 9 c6 -18 -15 -14 -22 4 -4 10 -1 14 6 12 6 -2 14
-10 16 -16z m-28 -12 c0 -5 -4 -10 -10 -10 -5 0 -10 5 -10 10 0 6 5 10 10 10
6 0 10 -4 10 -10z m20 -30 c0 -5 12 -21 26 -35 21 -21 29 -24 36 -13 7 10 9
10 7 -2 -3 -34 1 -42 21 -37 11 3 23 1 26 -4 3 -5 0 -10 -5 -10 -6 -1 -17 -2
-23 -3 -13 -2 -98 80 -98 93 0 4 -7 8 -15 8 -8 0 -15 -4 -15 -9 0 -4 5 -8 10
-8 6 0 10 -4 10 -10 0 -15 -36 -12 -50 5 -14 17 -30 20 -30 5 0 -6 12 -15 26
-21 15 -5 24 -12 21 -15 -3 -3 -25 4 -48 14 -27 13 -46 17 -50 10 -4 -5 -9 -3
-12 6 -7 17 8 22 73 29 70 7 90 7 90 -3z m76 -28 c-6 -5 -36 23 -36 34 0 4 9
-1 20 -11 11 -10 18 -20 16 -23z m205 25 c-7 -7 -14 -8 -21 -1 -6 6 -2 10 12
11 16 2 18 -1 9 -10z m-458 -33 c-1 -7 7 -20 19 -30 19 -17 21 -17 15 -1 -9
25 -2 21 19 -10 15 -24 15 -26 1 -14 -25 20 -21 4 13 -51 17 -26 30 -50 30
-52 0 -11 -69 1 -81 13 -11 12 -8 13 20 8 37 -8 38 -9 -9 61 -33 50 -36 52
-70 46 -19 -3 -48 -10 -65 -15 -16 -4 -54 -11 -84 -14 -30 -4 -62 -10 -70 -14
-9 -5 -46 -14 -83 -21 -38 -7 -68 -16 -68 -20 0 -5 16 -25 35 -46 35 -37 44
-51 25 -39 -5 3 -10 1 -10 -4 0 -18 35 -12 85 14 26 14 49 24 51 22 6 -6 -65
-53 -101 -68 -16 -7 -38 -19 -47 -27 -15 -12 -20 -11 -44 13 -17 17 -30 23
-36 17 -18 -18 -3 -56 31 -79 19 -13 29 -23 24 -23 -15 0 -23 -63 -9 -72 17
-12 26 -9 26 7 0 8 -5 15 -12 15 -6 0 1 14 17 30 16 17 33 30 39 30 5 0 -3
-14 -20 -32 -17 -18 -22 -29 -13 -25 24 8 40 -12 28 -35 -5 -10 -15 -18 -21
-18 -7 0 -7 4 1 13 6 8 8 17 4 20 -3 4 -11 -1 -18 -10 -15 -20 -45 -13 -102
23 -46 31 -53 46 -52 119 0 43 2 47 11 28 6 -13 15 -23 20 -23 4 0 8 -5 8 -11
0 -6 -7 -8 -16 -5 -12 5 -15 2 -10 -10 3 -8 6 -22 6 -30 0 -9 4 -12 10 -9 5 3
8 0 5 -7 -2 -7 10 -24 28 -38 17 -14 28 -19 24 -12 -5 6 -4 12 2 12 20 0 11
42 -14 72 -14 16 -25 37 -25 47 0 19 24 44 53 54 9 4 17 11 17 16 0 11 -29 23
-41 16 -5 -4 -6 1 -3 9 5 13 9 13 32 -1 15 -9 29 -18 31 -20 3 -2 -5 -11 -18
-19 l-22 -16 20 -19 c24 -23 35 -24 28 -4 -5 11 1 13 26 10 32 -5 32 -5 5 6
-16 6 -25 16 -22 24 3 7 -11 31 -30 52 -35 37 -37 37 -51 19 -14 -19 -15 -19
-15 7 0 18 4 25 13 21 7 -2 56 7 108 21 52 14 148 34 214 46 66 11 124 24 128
28 5 5 -16 4 -45 0 -29 -5 -132 -16 -228 -25 -96 -9 -179 -20 -185 -25 -5 -5
5 -9 25 -10 32 -1 33 -2 10 -9 -14 -4 -19 -8 -11 -9 8 -1 12 -4 8 -7 -7 -8
-56 28 -57 42 0 6 52 15 133 23 72 7 168 19 212 26 94 15 151 15 148 -1z m493
-5 c19 -22 19 -22 -3 -10 -24 12 -39 31 -25 31 5 0 17 -10 28 -21z m-276 -72
c0 -5 -6 -7 -12 -4 -7 2 -12 10 -10 16 1 6 -2 11 -8 11 -5 0 -10 8 -10 18 0
14 4 12 20 -8 11 -14 20 -29 20 -33z m255 13 c10 -11 15 -20 11 -20 -4 0 -16
9 -28 20 -12 11 -17 20 -11 20 5 0 18 -9 28 -20z m-842 3 c-7 -2 -19 -2 -25 0
-7 3 -2 5 12 5 14 0 19 -2 13 -5z m891 -8 c11 -8 28 -15 39 -15 14 0 17 -4 12
-17 -4 -10 -10 -26 -12 -36 -4 -14 -8 -15 -19 -6 -8 6 -14 8 -14 4 0 -5 -9 0
-20 10 -11 10 -20 23 -20 29 0 6 9 0 20 -14 26 -33 25 -20 -1 24 -22 38 -17
45 15 21z m-87 -1 c-3 -3 -12 -4 -19 -1 -8 3 -5 6 6 6 11 1 17 -2 13 -5z
m-277 -39 c0 -8 -7 -15 -15 -15 -9 0 -12 6 -9 15 4 8 10 15 15 15 5 0 9 -7 9
-15z m257 -2 c3 -10 18 -31 32 -47 l26 -30 -32 25 c-17 13 -33 32 -36 42 -4
11 -11 15 -24 11 -15 -5 -15 -4 -3 5 21 15 30 14 37 -6z m-313 -9 c3 -8 2 -12
-4 -9 -6 3 -10 10 -10 16 0 14 7 11 14 -7z m351 7 c-3 -6 3 -15 14 -20 11 -6
23 -20 26 -31 3 -11 11 -20 17 -20 6 0 6 6 -2 15 -18 21 -8 28 16 11 19 -15
19 -15 -1 -29 -25 -19 -35 -14 -65 31 -34 50 -34 52 -15 52 9 0 14 -4 10 -9z
m-1528 -7 c-3 -3 -12 -4 -19 -1 -8 3 -5 6 6 6 11 1 17 -2 13 -5z m-24 -65 c-6
-6 -7 3 -4 23 4 28 6 29 9 9 2 -13 0 -27 -5 -32z m817 42 c0 -5 -8 -15 -17
-22 -15 -12 -16 -12 -10 4 6 16 5 16 -21 0 l-27 -17 19 22 c19 22 56 30 56 13z
m578 2 c-10 -2 -18 -8 -18 -13 0 -5 7 -7 15 -4 36 14 105 -75 105 -136 0 -30
-18 -24 -22 8 -2 22 -7 27 -28 25 l-25 -3 23 12 c12 6 22 14 22 17 0 3 -43 6
-95 6 -54 1 -95 -3 -95 -9 0 -5 -3 -6 -7 -3 -3 4 -12 2 -20 -5 -11 -8 -12 -7
-7 6 4 10 1 16 -7 16 -17 1 -68 39 -52 40 6 0 27 -9 45 -20 21 -12 38 -16 47
-10 8 4 38 6 67 3 29 -3 64 -3 79 1 23 6 25 9 14 22 -10 12 -25 15 -56 11 -31
-3 -46 0 -55 11 -11 13 -10 15 2 10 9 -3 24 0 35 8 10 8 26 13 34 13 13 -1 12
-2 -1 -6z m143 -40 c46 -35 62 -44 71 -35 7 7 16 12 21 12 8 0 -10 -26 -64
-93 l-26 -32 17 -54 17 -54 69 2 c38 1 76 -3 84 -9 11 -7 -12 -10 -75 -10
l-90 0 -17 62 -16 63 29 36 c16 20 29 41 29 46 0 12 -70 79 -70 67 0 -5 -5 -1
-11 9 -6 9 -15 15 -20 11 -14 -8 -70 6 -63 17 13 22 59 7 115 -38z m-230 11
l24 -27 -23 12 c-13 7 -30 10 -39 7 -19 -8 -63 3 -63 16 0 6 10 8 23 5 12 -4
29 -2 37 3 8 5 15 10 16 10 0 0 11 -12 25 -26z m-190 -2 c13 -10 39 -25 57
-33 17 -8 32 -17 32 -21 0 -14 -14 -9 -73 28 -32 20 -64 33 -72 30 -8 -3 -17
-1 -20 4 -11 18 52 10 76 -8z m-1077 -8 c11 -28 6 -38 -9 -18 -8 10 -15 22
-15 27 0 13 18 7 24 -9z m876 8 c0 -5 -18 -20 -40 -34 l-39 -26 15 24 c9 13
23 24 30 24 8 0 14 5 14 10 0 6 5 10 10 10 6 0 10 -4 10 -8z m156 -25 c60 -36
88 -57 73 -57 -9 0 -33 14 -54 30 -21 17 -43 30 -49 30 -12 -1 34 -42 79 -71
17 -10 23 -19 15 -19 -8 0 -27 10 -42 23 -15 12 -39 30 -53 40 -14 10 -25 22
-25 27 0 14 31 12 56 -3z m494 -50 c-1 -16 -39 -66 -40 -50 0 6 5 15 10 18 6
3 10 15 10 27 0 18 -2 19 -17 7 -11 -9 -14 -9 -10 -2 5 7 -1 18 -13 25 -36 23
-21 29 20 8 22 -11 40 -26 40 -33z m-1570 33 c0 -5 -2 -10 -4 -10 -3 0 -8 5
-11 10 -3 6 -1 10 4 10 6 0 11 -4 11 -10z m47 -18 c8 -5 3 -12 -17 -19 -20 -7
-30 -8 -30 -1 0 6 -7 8 -15 4 -8 -3 -15 -1 -15 4 0 5 12 11 28 13 15 2 29 5
32 5 3 1 10 -2 17 -6z m825 -37 c21 5 28 4 24 -4 -4 -6 -18 -11 -32 -11 -17 0
-24 -6 -24 -19 0 -20 -25 -35 -42 -24 -7 4 -8 1 -3 -7 4 -7 2 -16 -6 -21 -12
-8 -12 -11 1 -18 8 -6 24 -17 35 -25 20 -15 20 -15 -1 -16 -31 0 -55 40 -45
76 6 21 13 28 26 26 17 -3 17 -2 4 14 -8 10 -9 15 -2 11 8 -5 15 2 20 20 5 21
8 23 11 10 3 -15 10 -17 34 -12z m313 15 c3 -5 1 -10 -4 -10 -6 0 -11 5 -11
10 0 6 2 10 4 10 3 0 8 -4 11 -10z m-1215 -18 c0 -10 44 -10 51 0 6 10 39 0
39 -12 0 -15 -53 -21 -82 -9 -27 11 -38 29 -18 29 6 0 10 -4 10 -8z m810 -17
c-7 -8 -17 -15 -23 -15 -6 0 -2 8 9 19 22 21 33 19 14 -4z m250 16 c0 -4 -23
-11 -51 -14 -46 -6 -97 -33 -85 -45 3 -2 -1 -11 -9 -18 -16 -16 -80 -19 -70
-4 3 6 20 10 38 10 24 0 28 3 19 12 -15 15 3 38 29 38 11 0 19 4 19 9 0 6 24
12 53 14 28 2 53 4 55 5 1 1 2 -2 2 -7z m298 -13 c8 -10 -4 -13 -59 -13 -38 0
-69 3 -69 7 0 19 113 24 128 6z m52 8 c0 -3 -4 -8 -10 -11 -5 -3 -10 -1 -10 4
0 6 5 11 10 11 6 0 10 -2 10 -4z m-1349 -35 c32 20 47 10 46 -28 0 -21 -2 -30
-5 -20 -2 13 -10 17 -23 14 -10 -3 -24 1 -30 9 -8 10 -15 11 -24 4 -9 -8 -15
-7 -18 2 -3 7 -6 0 -6 -15 -1 -37 -21 -25 -21 13 0 27 2 28 34 20 19 -4 40 -4
47 1z m1267 -8 c-7 -9 -7 -13 2 -13 8 0 11 -3 8 -6 -6 -6 -48 17 -48 26 0 3
11 5 24 5 18 0 22 -3 14 -12z m225 -33 c6 -24 1 -25 -19 -6 -18 18 -18 26 0
26 7 0 16 -9 19 -20z m-383 -19 c0 -16 3 -44 6 -62 4 -19 4 -31 0 -27 -11 9
-24 118 -14 118 4 0 8 -13 8 -29z m140 9 c0 -5 -4 -10 -9 -10 -6 0 -13 5 -16
10 -3 6 1 10 9 10 9 0 16 -4 16 -10z m871 -18 c8 2 15 -7 17 -22 2 -14 9 -28
16 -32 6 -4 -58 -8 -141 -8 l-153 0 0 25 c0 24 3 25 63 26 34 0 83 4 109 8 32
5 48 4 51 -4 3 -6 -3 -11 -12 -11 -9 -1 -50 -3 -91 -4 -131 -5 -122 -19 12
-19 74 -1 129 3 133 9 3 6 -1 10 -9 10 -9 0 -16 2 -16 4 0 2 -3 13 -6 23 -4
13 -3 14 3 5 6 -7 16 -12 24 -10z m-218 1 c-7 -2 -21 -2 -30 0 -10 3 -4 5 12
5 17 0 24 -2 18 -5z m-1859 -28 c-4 -8 -16 -15 -28 -14 -20 0 -20 1 -1 8 19 8
18 9 -5 13 -22 5 -21 5 7 7 25 1 31 -2 27 -14z m-104 -5 c0 -5 -2 -10 -4 -10
-3 0 -8 5 -11 10 -3 6 -1 10 4 10 6 0 11 -4 11 -10z m98 -27 c-10 -2 -26 -2
-35 0 -10 3 -2 5 17 5 19 0 27 -2 18 -5z m1759 1 c-3 -3 -12 -4 -19 -1 -8 3
-5 6 6 6 11 1 17 -2 13 -5z m-933 -12 c3 -5 -1 -9 -9 -9 -8 0 -12 4 -9 9 3 4
7 8 9 8 2 0 6 -4 9 -8z m-187 -12 c-16 -5 -38 -5 -50 0 -17 7 -10 9 28 9 43
-1 46 -2 22 -9z m843 1 c0 -5 -21 -17 -47 -27 -27 -9 -52 -22 -58 -28 -5 -6
-19 -13 -30 -14 -11 -2 -26 -8 -32 -14 -7 -6 -23 -8 -36 -4 -13 3 -38 1 -56
-4 -18 -5 -57 -10 -87 -12 -29 -2 -54 -6 -54 -11 0 -4 -9 -3 -21 3 -11 7 -23
9 -27 6 -3 -3 0 -6 6 -6 7 0 12 -4 12 -8 0 -5 -32 -5 -72 -1 -39 5 -74 6 -78
4 -4 -3 -36 7 -71 20 -69 27 -109 31 -127 13 -9 -9 -12 -8 -12 5 0 9 5 17 10
17 6 0 10 5 10 11 0 5 -4 7 -10 4 -5 -3 -10 -1 -10 5 0 13 16 9 114 -27 66
-25 75 -26 237 -21 114 3 173 9 184 18 9 7 28 10 47 6 26 -4 49 3 108 33 77
41 100 48 100 32z m307 2 c-20 -2 -52 -2 -70 0 -17 2 0 4 38 4 39 0 53 -2 32
-4z m-1907 -13 c0 -15 113 -12 129 3 11 10 13 9 7 -1 -6 -10 49 -11 271 -8
216 4 247 3 138 -4 -199 -12 -754 -19 -730 -9 11 4 56 8 100 9 59 2 72 4 50
10 l-30 8 33 1 c17 0 32 -3 32 -9z m986 -7 c20 -27 16 -38 -6 -18 -20 18 -26
35 -14 35 4 0 13 -8 20 -17z m474 -13 c0 -5 -2 -10 -4 -10 -3 0 -8 5 -11 10
-3 6 -1 10 4 10 6 0 11 -4 11 -10z m-676 -26 c3 -9 2 -12 -4 -9 -10 6 -361 6
-450 0 -25 -2 -154 -4 -287 -4 l-243 -1 0 -35 c0 -19 -4 -35 -9 -35 -9 0 -8
67 1 76 3 2 175 8 384 12 616 14 601 14 608 -4z m730 -62 c-15 -4 -46 22 -37
31 3 4 16 -2 28 -11 17 -12 19 -18 9 -20z m-707 -11 c-1 -17 -6 -26 -10 -21
-8 7 -1 50 8 50 2 0 3 -13 2 -29z m550 9 c-6 -23 3 -26 21 -8 9 9 12 9 12 0 0
-18 -28 -26 -43 -14 -7 6 -37 12 -67 15 l-55 3 63 2 c34 1 62 7 62 12 0 6 3
10 6 10 4 0 4 -9 1 -20z m103 16 c0 -2 -7 -7 -16 -10 -8 -3 -12 -2 -9 4 6 10
25 14 25 6z m955 -30 c17 -1 -14 -4 -68 -4 -54 -1 -96 1 -94 6 5 6 90 6 162
-2z m170 4 c-11 -5 -45 -8 -75 -8 l-55 1 50 7 c28 4 61 7 75 8 23 1 23 0 5 -8z
m135 1 c0 -5 -17 -9 -37 -9 -29 0 -33 2 -18 9 27 11 55 11 55 0z m-1203 -7
c-3 -3 -12 -4 -19 -1 -8 3 -5 6 6 6 11 1 17 -2 13 -5z m591 -1 c-76 -2 -200
-2 -275 0 -76 1 -14 3 137 3 151 0 213 -2 138 -3z m-1840 -18 c3 -3 -96 -5
-219 -6 -123 0 -234 -2 -246 -5 -13 -2 -23 0 -23 6 0 15 473 20 488 5z m62 -1
c0 -2 -12 -4 -26 -4 -14 0 -23 4 -20 9 6 8 46 4 46 -5z m369 12 c-8 -8 -359
-15 -354 -6 3 5 85 9 182 10 97 0 175 -1 172 -4z m781 0 c0 -3 -4 -8 -10 -11
-5 -3 -10 -1 -10 4 0 6 5 11 10 11 6 0 10 -2 10 -4z m99 -63 c1 -7 -3 -13 -8
-13 -11 0 -21 51 -13 65 6 9 19 -23 21 -52z m-412 15 c-3 -8 -6 -5 -6 6 -1 11
2 17 5 13 3 -3 4 -12 1 -19z m3 -251 c91 -120 155 -175 385 -329 88 -59 173
-117 188 -129 l28 -21 -17 35 c-10 20 -20 35 -24 34 -8 -2 -100 62 -100 69 0
3 13 -4 29 -15 15 -11 32 -17 36 -13 5 4 5 1 1 -5 -4 -7 -3 -13 3 -13 5 0 16
-3 25 -6 20 -8 21 10 1 30 -9 8 -15 19 -14 23 4 18 -14 93 -25 102 -6 5 -53
20 -104 33 -51 13 -89 27 -86 31 4 4 -1 7 -12 7 -11 0 -30 7 -42 16 -12 8 -22
12 -22 9 0 -9 -178 86 -191 102 -15 17 11 8 96 -35 90 -46 196 -88 307 -122
66 -20 68 -22 79 -63 6 -23 30 -100 54 -172 41 -124 62 -235 44 -235 -5 0 -9
8 -9 18 0 10 -3 21 -6 25 -3 3 -7 29 -8 58 -1 45 -6 55 -35 79 -18 16 -64 43
-102 61 -38 18 -67 35 -65 37 3 2 14 -2 26 -8 12 -7 20 -8 16 -2 -3 5 -56 40
-117 77 -62 38 -140 94 -174 126 -34 32 -66 55 -70 51 -5 -4 -5 -1 -1 6 4 7 1
12 -8 12 -9 0 -16 4 -16 8 0 5 -12 8 -27 7 -19 -2 -21 -1 -5 2 12 2 22 6 22 9
0 3 -23 32 -50 65 -59 71 -112 152 -152 231 -43 87 -33 82 18 -9 26 -45 82
-128 124 -186z m335 185 c-6 -6 -66 29 -61 36 2 4 -6 9 -20 10 -33 3 -30 -14
7 -33 35 -19 33 -29 -4 -20 -21 6 -36 29 -37 57 0 4 12 8 28 10 19 2 36 -6 59
-27 17 -16 30 -31 28 -33z m26 26 c20 -28 23 -29 29 -12 6 15 8 14 12 -10 5
-22 0 -34 -19 -52 -26 -24 -88 -42 -101 -29 -9 8 28 36 39 30 4 -3 10 -1 14 5
3 5 17 10 31 10 13 0 24 2 24 5 0 2 -16 19 -35 38 -36 35 -42 47 -26 47 5 0
20 -14 32 -32z m-354 -90 c-2 -13 -4 -3 -4 22 0 25 2 35 4 23 2 -13 2 -33 0
-45z m208 2 c33 -12 62 -26 65 -31 3 -5 34 -8 69 -8 46 1 68 -3 79 -15 15 -15
14 -16 -10 -16 -15 0 -30 -4 -33 -10 -3 -5 -14 -10 -23 -10 -15 1 -15 2 2 15
24 18 15 30 -12 16 -34 -18 -67 -13 -128 20 -33 18 -71 38 -86 46 -16 8 -28
17 -28 20 0 7 33 -1 105 -27z m-144 -42 c-25 -39 -27 -34 -5 11 9 18 18 30 21
27 3 -3 -4 -20 -16 -38z m354 32 c3 -5 -1 -10 -9 -10 -9 0 -16 5 -16 10 0 6 4
10 9 10 6 0 13 -4 16 -10z m-237 -100 c7 -19 -13 -10 -53 26 l-40 35 45 -25
c25 -14 46 -30 48 -36z m-332 29 c19 -22 19 -22 -3 -10 -24 12 -39 31 -25 31
5 0 17 -10 28 -21z m604 -20 c0 -5 -7 -9 -15 -9 -8 0 -17 -11 -21 -25 -3 -14
-10 -25 -15 -25 -14 0 -11 12 11 48 18 30 40 36 40 11z m-143 5 c-3 -3 -12 -4
-19 -1 -8 3 -5 6 6 6 11 1 17 -2 13 -5z m65 -26 c-8 -8 -17 -8 -34 0 -22 10
-21 11 12 11 26 1 31 -2 22 -11z m-144 -11 c13 4 14 3 3 -5 -8 -6 -10 -15 -6
-22 5 -8 3 -11 -6 -8 -8 3 -15 15 -16 29 -1 13 0 19 3 12 3 -7 13 -9 22 -6z
m231 -15 c-2 -15 1 -33 5 -41 6 -9 5 -12 -5 -9 -8 3 -14 10 -13 16 1 7 2 23 3
37 0 14 4 25 7 25 3 0 4 -12 3 -28z m-555 -18 c3 -8 2 -12 -4 -9 -6 3 -10 10
-10 16 0 14 7 11 14 -7z m382 4 c5 -7 3 -8 -6 -3 -9 5 -10 2 -5 -14 7 -22 6
-22 -14 -4 -22 18 -22 18 16 32 1 1 5 -4 9 -11z m77 -24 c26 -9 47 -20 47 -25
0 -12 -3 -12 -36 6 -16 8 -37 15 -46 15 -10 0 -18 5 -18 10 0 13 -2 13 53 -6z
m-53 -34 c0 -5 -2 -10 -4 -10 -3 0 -8 5 -11 10 -3 6 -1 10 4 10 6 0 11 -4 11
-10z m134 -5 c-4 -8 -10 -12 -15 -9 -11 6 -2 24 11 24 5 0 7 -7 4 -15z m33 -5
c-3 -11 0 -20 6 -20 6 0 8 -2 5 -5 -3 -3 -12 -3 -20 0 -17 7 -13 45 4 45 6 0
8 -9 5 -20z m-114 -10 c23 0 118 -30 135 -43 6 -5 12 -16 12 -25 0 -12 -5 -10
-21 7 -18 19 -28 22 -57 16 -32 -6 -34 -5 -22 9 11 15 9 16 -16 15 -41 -3 -74
10 -74 29 0 12 3 13 12 4 7 -7 20 -12 31 -12z m-1710 -27 c-7 -2 -19 -2 -25 0
-7 3 -2 5 12 5 14 0 19 -2 13 -5z m105 0 c-10 -2 -26 -2 -35 0 -10 3 -2 5 17
5 19 0 27 -2 18 -5z m1307 -3 c-9 -15 4 -50 19 -50 8 0 26 -15 42 -33 16 -18
40 -40 54 -49 45 -30 95 -77 83 -78 -13 0 -86 58 -147 117 -21 21 -33 30 -26
20 7 -9 10 -20 7 -23 -3 -3 -16 10 -29 30 -13 20 -26 36 -29 36 -12 0 -19 -46
-19 -136 0 -50 -7 -131 -15 -179 -9 -51 -13 -107 -9 -132 4 -25 2 -43 -3 -43
-8 0 -13 32 -15 95 0 6 2 24 6 40 20 95 20 106 0 99 -18 -5 -17 -4 1 11 18 14
20 28 20 126 l0 109 30 25 c33 27 39 30 30 15z m170 -10 c22 -11 33 -19 25
-19 -8 0 -31 8 -50 19 -46 25 -27 25 25 0z m-1558 -16 c-3 -3 -12 -4 -19 -1
-8 3 -5 6 6 6 11 1 17 -2 13 -5z m48 -44 c3 -5 1 -10 -4 -10 -6 0 -11 5 -11
10 0 6 2 10 4 10 3 0 8 -4 11 -10z m-49 -9 c-10 -16 -46 -20 -46 -5 0 8 10 14
26 14 14 0 23 -4 20 -9z m1764 -101 c0 -15 -5 -12 -26 11 -19 22 -19 22 4 10
12 -6 22 -16 22 -21z m-255 -54 c50 -68 126 -135 197 -173 25 -13 35 -23 25
-23 -49 0 -219 146 -257 220 -11 22 -19 40 -16 40 2 0 25 -29 51 -64z m181
-87 c38 -20 93 -45 122 -55 28 -10 52 -22 52 -27 0 -13 -35 0 -145 53 -106 52
-160 91 -197 143 -16 24 -7 18 38 -23 33 -31 92 -72 130 -91z m127 -2 c37 -22
66 -42 63 -44 -5 -5 -23 3 -117 56 -67 37 -108 76 -49 46 19 -10 66 -36 103
-58z m-253 -53 c7 -19 10 -38 7 -40 -3 -3 -8 8 -12 25 -4 17 -11 33 -16 36 -5
4 -9 11 -9 16 0 21 19 -2 30 -37z m-454 10 c-11 -7 -22 -12 -25 -9 -2 3 4 12
15 19 10 8 21 12 24 9 3 -2 -4 -11 -14 -19z m565 8 c-7 -2 -18 1 -23 6 -8 8
-4 9 13 5 13 -4 18 -8 10 -11z m-71 -151 c-1 -25 -16 6 -24 49 l-7 35 16 -34
c8 -18 15 -41 15 -50z m-470 59 c0 -5 -4 -10 -10 -10 -5 0 -10 5 -10 10 0 6 5
10 10 10 6 0 10 -4 10 -10z" />
        <path d="M2775 3056 c-28 -20 -12 -46 29 -46 47 0 66 9 66 30 0 31 -61 41 -95
16z" />
        <path
            d="M2117 3007 c2 -4 -1 -14 -7 -22 -32 -39 24 -61 61 -24 31 31 21 54
-23 54 -20 1 -34 -3 -31 -8z" />
        <path d="M2657 2831 c-3 -13 -1 -18 9 -14 7 2 10 11 7 19 -7 19 -10 18 -16 -5z" />
        <path d="M1975 2779 c-4 -6 -5 -12 -2 -15 2 -3 7 2 10 11 7 17 1 20 -8 4z" />
        <path
            d="M2223 2750 c-38 -15 -44 -83 -10 -104 13 -9 26 -7 55 9 46 25 55 65
20 89 -25 18 -33 19 -65 6z" />
        <path
            d="M256 2509 c-27 -31 -31 -46 -20 -73 12 -31 59 -13 83 32 10 19 10 28
-4 48 -20 31 -28 30 -59 -7z" />
        <path
            d="M1841 2690 c-34 -34 -40 -64 -15 -74 46 -18 114 11 114 48 0 26 -13
40 -46 50 -16 5 -30 -1 -53 -24z" />
        <path d="M2685 2660 c-9 -14 3 -30 23 -30 21 0 48 17 40 25 -11 11 -57 15 -63
5z" />
        <path
            d="M831 2569 c-13 -14 -21 -36 -21 -56 0 -30 3 -33 28 -33 58 0 82 66
35 97 -19 13 -23 12 -42 -8z" />
        <path
            d="M581 2534 c-26 -33 -27 -66 -3 -87 23 -21 36 -21 67 -1 32 21 37 39
20 80 -18 43 -54 46 -84 8z" />
        <path d="M507 2413 c-4 -3 -7 -11 -7 -17 0 -6 5 -5 12 2 6 6 9 14 7 17 -3 3
-9 2 -12 -2z" />
        <path d="M2555 2310 c-3 -5 -1 -10 4 -10 6 0 11 5 11 10 0 6 -2 10 -4 10 -3 0
-8 -4 -11 -10z" />
        <path d="M2215 2200 c-3 -5 -1 -10 4 -10 6 0 11 5 11 10 0 6 -2 10 -4 10 -3 0
-8 -4 -11 -10z" />
        <path d="M1830 1875 c-8 -9 -8 -15 -2 -15 12 0 26 19 19 26 -2 2 -10 -2 -17
-11z" />
        <path d="M2165 1930 c-3 -5 -1 -10 4 -10 6 0 11 5 11 10 0 6 -2 10 -4 10 -3 0
-8 -4 -11 -10z" />
        <path d="M2195 1930 c3 -5 14 -10 23 -10 15 0 15 2 2 10 -20 13 -33 13 -25 0z" />
        <path d="M2406 3205 c-8 -21 17 -29 51 -18 43 15 40 33 -5 33 -27 0 -42 -5
-46 -15z" />
        <path
            d="M2982 2769 c-12 -18 -11 -24 2 -37 15 -15 16 -13 16 21 0 20 -1 37
-3 37 -1 0 -8 -10 -15 -21z" />
    </g>
</svg>